<?xml version="1.0" standalone="no"?>
<!DOCTYPE svg PUBLIC "-//W3C//DTD SVG 1.1//EN" "http://www.w3.org/Graphics/SVG/1.1/DTD/svg11.dtd" >
<!--
2013-9-30: Created.
-->
<svg>
<metadata>
Created by iconfont
</metadata>
<defs>

<font id="iconfont" horiz-adv-x="1024" >
  <font-face
    font-family="iconfont"
    font-weight="500"
    font-stretch="normal"
    units-per-em="1024"
    ascent="896"
    descent="-128"
  />
    <missing-glyph />
    
    <glyph glyph-name="wind-zoom-out" unicode="&#58926;" d="M409.6 896l0-307.2L0 588.8l0-716.8 819.2 0L819.2 179.20000000000005l409.6 0L1228.8 896 409.6 896zM716.8-25.600000000000023L102.4-25.600000000000023 102.4 384l614.4 0L716.8-25.600000000000023zM1126.4 281.6L819.2 281.6 819.2 588.8 512 588.8 512 691.2l614.4 0L1126.4 281.6z"  horiz-adv-x="1229" />

    
    <glyph glyph-name="zuixiaohua" unicode="&#59064;" d="M9.25 484.55l1005.499 0 0-201.099-1005.499 0 0 201.099z"  horiz-adv-x="1024" />

    
    <glyph glyph-name="xuesheng" unicode="&#58948;" d="M956.70322347 674.97370667l29.1404864 10.6183712M507.8292768 247.63339732999998c92.32786987 0 128.31441067 31.15653547 128.31441067 31.15653547 77.4601856 41.21277013 118.1828608 118.47648107 118.1828608 207.1379136 0 3.68390187-0.42242027 7.15059093-0.63526827 10.7580864 17.56266347 13.39194027 28.039136 27.83392853 28.039136 42.42873067l0 99.57124053 109.62529173 39.87565013 27.4082336 9.904512 27.41587414 9.9896512L507.6033312 857.79786453l0 0 0 0L69.03557867 698.4557184l164.44066666-59.7054144 0-99.628c0-14.23678187 10.47647253-28.47356267 28.11117654-41.8567712-0.212848-3.75703467-0.7073088-7.44093653-0.7073088-11.26892053 0-87.90500373 40.03501333-164.60876267 116.21920426-206.14789867 0.6516416-0.35583787 1.30655787-0.70840107 1.96365654-1.0587808C379.06297387 278.7899328 413.51592 247.63339732999998 507.8292768 247.63339732999998zM507.6033312 295.25233706999995c-101.09392 0-184.2202208 74.56436587-193.84857707 170.1155136 52.63232213-20.9944224 127.1246464-46.40734507 197.44297387-46.40734507 70.3991008 0 137.62185813 25.05490133 190.25418027 45.91725013C691.5342976 369.5951232 608.4844032 295.25233706999995 507.6033312 295.25233706999995L507.6033312 295.25233706999995 507.6033312 295.25233706999995zM721.75976 552.8820885299999c0-6.67686827-23.0454016-15.23443733-36.22449387-24.10745706 0 0-4.05065493-2.95912853-9.78117013-6.0328672-36.9590912-21.22146027-102.20291093-42.17331413-168.2228064-42.17331414-65.89327893 0-131.14146453 21.66025387-168.1038304 42.81622294-4.8223648 2.63603627-8.87301973 5.39869013-8.87301973 5.39869013-13.81436053 9.0684032-33.67141333 17.7416736-33.67141334 24.10745707l0 57.14687573 210.70283947-72.32237013 214.15752107 72.32237013 0-57.15560747L721.75976 552.8820885299999 721.75976 552.8820885299999zM929.94008213-91.62289707000002c38.79503893 0 55.1504736 35.417856 55.1504736 73.8548736 0 122.9299104-291.11342187 282.0079072-291.11342186 282.0079072L564.89210453 29.29751252999995l-19.14101013 55.96911894 35.3327168 70.6457856-70.70581973 70.63923626-70.72437547-70.63923626 35.37310293-70.6457856-22.80635733-57.29532374L326.7319136 264.24097493c0 0-289.21307413-154.71189013-289.21307413-281.4632352 0-38.67933653 15.94065493-74.4006368 54.9780128-74.4006368M900.78758933 122.79768213"  horiz-adv-x="1024" />

    
    <glyph glyph-name="tongji" unicode="&#59007;" d="M973.96637923-14.697705250000013l-923.24230371 0c-26.40263623 0-47.75551773 21.37878528-47.75551773 47.75472584l0 764.03369984c0 26.37477547 21.35288149 47.74075392 47.75551773 47.74075392 26.34907648 0 47.75551773-21.36597845 47.75551773-47.74075392l0-604.86292253 0-111.41721543 875.48678485 0c26.34907648 0 47.75668281-21.37878528 47.75668281-47.75356188C1021.72189696 6.682245119999948 1000.31429177-14.697705250000013 973.96637923-14.697705250000013M862.51781917 128.56414435l-95.51103659 0c-26.34907648 0-47.75551773 21.36597845-47.75551773 47.74075392L719.25126485 510.56818631c0 26.38874738 21.40644125 47.75356189 47.75551773 47.75356188l95.51103659 0c26.40380018 0 47.75668281-21.36597845 47.7566828-47.75356188l0-334.26328804C910.27333689 149.93012280999994 888.92161934 128.56414435 862.51781917 128.56414435M591.91990499 128.56414435l-95.51103658 0c-26.37585635 0-47.75668281 21.36597845-47.75668281 47.74075392L448.6521856 701.58243271c0 26.37477547 21.38082645 47.75356189 47.75668281 47.75356188l95.51103658 0c26.37469241 0 47.75551773-21.37878528 47.75551773-47.75356188l0-525.27753444C639.67542272 149.93012280999994 618.29576135 128.56414435 591.91990499 128.56414435M321.32199083 128.56414435l-95.51103659 0c-26.40263623 0-47.75551773 21.36597845-47.75551773 47.74075392l0 95.50712264c0 26.37361152 21.35288149 47.75356189 47.75551773 47.75356188l95.51103659 0c26.37585635 0 47.75668281-21.37878528 47.7566828-47.75356188l0-95.50712264C369.07750855 149.93012280999994 347.69784718 128.56414435 321.32199083 128.56414435"  horiz-adv-x="1024" />

    
    <glyph glyph-name="jiaoxue" unicode="&#58895;" d="M1011.77165362 693.42951141c1.45718018 0 2.64941756 1.19223869 2.64941756 2.64941756l0 72.11451081c0 1.45718018-1.19223869 2.64941756-2.64941756 2.64941756l-72.1145108 0c-1.45718018 0-3.84165625 0-5.29883642 0l-381.76789707 0c-1.45718018 0-2.64941756 1.19223869-2.64941756 2.64941756l0 72.1145108c0 1.45718018-1.19223869 2.64941756-2.64941756 2.64941756l-72.11451081 0c-1.45718018 0-2.64941756-1.19223869-2.64941755-2.64941756l0-72.1145108c0-1.45718018-1.19223869-2.64941756-2.64941757-2.64941756l-381.76789708 0c-1.45718018 0-3.84165625 0-5.29883642 0l-72.11451079 0c-1.45718018 0-2.64941756-1.19223869-2.64941756-2.64941756l0-72.11451081c0-1.45718018 1.19223869-2.64941756 2.64941756-2.64941756l72.11451079 0c1.45718018 0 2.64941756-1.19223869 2.64941756-2.64941755l0-459.1812443c0-1.45718018-1.19223869-2.64941756-2.64941756-2.64941756l-72.11451079 0c-1.45718018 0-2.64941756-1.19223869-2.64941756-2.64941756l0-72.1145108c0-1.45718018 1.19223869-2.64941756 2.64941756-2.64941757l72.11451079 0c1.45718018 0 3.84165625 0 5.29883642 0l167.24054234 0c1.45718018 0 2.26127874-1.12732794 1.78570808-2.50502476l-54.32234313-157.61255632c-0.47424633-1.37769682-0.00662415-3.33429303 1.04122172-4.34637082l67.70190493-65.48434146c1.04784458-1.0134021 2.29307131-0.71534243 2.76731763 0.66235439l78.15783359 226.78091421c0.47424633 1.37769682 2.05594814 2.50502476 3.51312833 2.50502476l113.88126186 0c1.45718018 0 2.64941756-1.19223869 2.64941756-2.64941756l0-225.72909539c0-1.45718018 1.19223869-2.64941756 2.64941756-2.64941756l72.11451081 0c1.45718018 0 2.64941756 1.19223869 2.64941756 2.64941756L549.93966746 148.88666593000005c0 1.45718018 1.19223869 2.64941756 2.64941755 2.64941756l113.88126187 0c1.45718018 0 3.03755769-1.12732794 3.51312832-2.50502476l78.15783359-226.78091421c0.47424633-1.37769682 1.72079735-1.67575649 2.76731763-0.66235439l67.70190493 65.48434145c1.04784458 1.0134021 1.51546676 2.9686727 1.04122174 4.34637083L765.33205727 149.03105873000004c-0.47424633 1.37769682 0.32852793 2.50502476 1.7857081 2.50502476l167.24054232 0c1.45718018 0 3.84165625 0 5.29883643 0l72.11451078 0c1.45718018 0 2.64941756 1.19223869 2.64941758 2.64941756l0 72.1145108c0 1.45718018-1.19223869 2.64941756-2.64941758 2.64941757l-72.11451078 0c-1.45718018 0-2.64941756 1.19223869-2.64941756 2.64941756L937.00772526 690.78009257c0 1.45718018 1.19223869 2.64941756 2.64941756 2.64941755L1011.77165362 693.42951141zM166.11582094 228.94943071c-1.45718018 0-2.68253573 0.31130669-2.72227677 0.69282263s-0.0728592 2.59642951-0.07285921 4.05360971L163.32068496 674.16824218c0 1.45718018 0.48749333 3.73700448 1.08228708 5.06701179l13.11064476 13.11064477c1.33000733 0.59479374 3.60983162 1.08228707 5.06701181 1.08228706L834.7719808 693.4281857999999c1.45718018 0 3.73700448-0.48749333 5.0670118-1.08228706l13.11064477-13.11064477c0.59611934-1.33000733 1.08228707-3.60983162 1.08228707-5.06701179l0-440.47370344c0-1.45718018-0.01324701-2.96602407-0.03046826-3.3541629-0.01589693-0.38681451-1.30881314-1.39226944-2.76599202-1.39226945L166.11582094 228.94810639000002zM366.34029354 331.30307394l-52.60419569 0L313.73609785 496.62808668c-23.61823715-17.17617716-48.67908316-30.05897283-75.14809424-38.64838572l0 45.08912141c37.92641915 14.30818199 66.91237769 36.13143956 86.95787561 65.48699137l40.79441432 0L366.34029354 331.30307394zM568.16766342 432.21543522l-65.48699136 0 0-66.56000566-34.35367992 0 0 66.56000566-66.56000568 0 0 34.35367993 66.56000568 0 0 64.41265275 34.35367992 0 0-64.41265275 65.48699136 0L568.16766342 432.21543522zM649.75649335 373.17050384000004l112.72346568 0 0-41.86742861L587.49119349 331.30307394l0 31.13198713c20.0282754 30.05897283 43.29414053 54.7515486 69.78037286 74.07375563 37.20577817 27.91294425 54.38195534 48.66186192 51.52985708 62.26529857-0.72196658 20.75024198-11.45608375 31.13331145-32.20632572 31.13331144-21.47088426 0.70474534-34.72194889-12.53042237-39.72007572-39.72140001l-48.3094886 9.66110287c9.29283392 47.93989533 41.14678764 71.92772705 95.5446399 71.92772704 49.3838285-2.14735291 75.8541639-24.69125145 79.44412564-67.63301995 3.5714162-30.05897283-13.95713428-56.19283314-52.6041957-78.36978704C685.88793162 407.87655579 665.49138726 390.346681 649.75649335 373.17050384000004z"  horiz-adv-x="1024" />

    
    <glyph glyph-name="jiaoshiguanli" unicode="&#58971;" d="M421.30625469 466.49781885c-5.54317207 0-10.93078037 0.40604854-16.01517042 1.21287128-5.04659795 0.80242822-9.48763916 2.01969404-13.57185058 3.7177128-6.8790876 2.86255107-12.06718769 7.79137734-15.86136445 15.05541973-2.79663398 5.34102714-4.9323419 11.47569258-6.74110195 19.30925742-0.93865693 4.0798169-1.88522315 8.43033252-2.64370694 11.92656445l-0.17577861 0.79539698c-0.6134669 2.80981758-1.21287128 5.5721751-1.83688418 8.32750224l-0.10986152 0.49481631-0.13886456 0.50096866c-0.08788887 0.30321739-0.30058067 1.00193731-0.49921083 1.61100878l-0.05537022 0.16698955c-0.16259502 0.50712099-0.34276817 1.07840039-0.507121 1.65846885-0.22851211 0.81033838-0.44384062 1.62595019-0.65653242 2.43892529-0.28388232 1.10564648-0.56688574 2.16646875-0.82440088 3.03217735l-2.14889063 7.2420706-6.31220273 4.14573398c-0.45966094 0.30321739-0.70135576 0.68289873-0.78924462 1.23660089l-0.08788887 0.51678808c-0.12568183 0.71629717-0.23114883 1.32273281-0.21796524 1.92653086 0.10546699 4.25383769 0.24608935 8.50503779 0.38934932 12.75711767l0.1072248 3.35297286c0.03339756 1.02830362 0.67235273 1.78854521 1.71383906 2.06100175l1.03006143 0.27509326c1.47829658 0.40165401 3.11567256 0.84549375 4.68449473 1.06082227 8.65269229 1.17068379 17.91181934 2.41695263 27.27377665 3.53754053 10.04134131 1.20408222 20.72427364 1.75075312 34.64768057 1.77096709l0.19335586 0c0.6389543 0.01318359 1.43259433 0.01582031 2.22799131 0.01582031 14.93237549 0 30.18554648-1.41941074 45.32446143-4.21604473 8.59292754-1.57761123 16.98019365-4.2933876 24.38661708-6.68836845 5.42891602-1.75778437 9.60628974-2.86958232 13.53669434-3.60609434 2.12076651-0.39725948 4.31096572-0.61522471 6.52137891-0.64774336l-17.86084365-46.1066748c-1.8781919-4.84884756-3.80120801-9.10532109-5.87978789-13.01199609-4.63615576-8.70103125-10.71984551-16.29641602-18.07617217-22.56994688-4.35930469-3.70628789-9.67835918-6.43085244-16.7341043-8.57095488-7.51189043-2.27193574-15.73656153-3.70453008-25.14510087-4.38303428C427.33105948 466.61646943 424.25669463 466.49781885 421.30625469 466.49781885zM402.77481612 475.26037178c1.9467457-0.48602724 3.76605263-0.90086396 5.60908915-1.17771504 4.87169824-0.73211748 9.81722373-1.09861523 14.71001572-1.09861523 8.65444922 0 17.47237324 1.15837998 26.20416534 3.44525625 7.34929541 1.92740977 13.15701299 4.99913789 17.76240791 9.39271904 3.42152666 3.25805273 6.43788369 7.20691435 9.48763915 12.42050185 4.9613458 8.47691367 8.56480253 17.38008984 10.69611593 26.45640703 1.58376357 6.76922607 2.11812979 12.79403086 1.62595019 18.42333399l-0.97996464 11.29112578-10.06770763 5.24962178c-3.38373457 1.79469756-6.99158584 2.69380371-11.71738828 3.76605264l-1.03445596 0.23730117c-9.56673984 2.20601865-19.68454424 3.2387168-33.80394462 3.44965078l-0.69696124 0.01054687-3.46898671-0.18193096c-3.33978926-0.1740208-7.49694902-0.39374385-11.58819082-0.72772294-8.20621494-0.6679582-15.58275557-1.87643408-22.53918604-3.69574102l-12.11728447-3.25805273-2.87573467-12.16826016c-0.38231807-1.64528613-0.57831065-3.25190039-0.81736963-5.34366387l-0.01142578-0.1072248c-0.06152256-0.54930762-0.12040839-1.06082227-0.18632548-1.56882217-0.5862208-4.73898604-0.65213789-9.4393002-0.20214492-13.98492949 0.65213789-6.59169053 1.66286338-15.28393183 3.72825966-23.95595918 1.59255263-6.6945208 3.90843281-12.24735997 7.07508105-16.96701006 1.66374229-2.47671738 3.53314599-4.44279902 5.72158741-6.013379l5.40694336-3.89085469 4.07981689 0L402.77481612 475.26037178zM609.20369844 467.05152099c-8.74937021 0-16.76925967 0.73211748-24.49911446 2.23238585-7.52770987 1.46511299-14.0534833 3.73968545-19.93327119 6.94939922-8.39781299 4.58342227-15.33666533 11.48008711-20.61001758 20.50191386-3.56390684 6.09247969-6.77625732 12.52860557-9.53158359 19.13523662l-19.0411954 45.61625303c4.5746332 0.09667792 9.32943867 0.94305146 14.51050751 2.58394218 2.49165878 0.78660878 4.93497862 1.64792285 7.30359229 2.48023302 2.21920224 0.78045645 4.49992705 1.58200576 6.71034023 2.29830292 8.20885166 2.65425381 17.27462286 4.55266055 28.51565098 5.97207129 10.50715372 1.32712734 21.25600312 1.97311289 32.84419482 1.97311289 4.73722822 0 9.70296768-0.11249824 14.74341328-0.33837363l0.74705801-0.03339756c7.84850537-0.35155722 15.96507363-0.71453935 24.00254121-1.27263604 9.97102969-0.69432451 19.82340967-2.16822656 30.77000948-3.88909687 0.60643565-0.09052559 1.18210957-0.24608935 1.75338984-0.39110712l0.36034541-0.09667794c0.90525849-0.23290664 1.50729961-0.65038008 1.5864003-1.95817148 0.0395499-0.66971602 0.09228339-1.37722412 0.14941141-2.08033769l0.03515538-0.46141788c0.11865059-1.50466289 0.22411758-2.89770732 0.26806201-4.36809287 0.07910068-2.64810146 0.09228339-5.26895771 0.0922834-8.07877529l-3.06733272 5.56778057-4.3724874-15.06157208-0.04394443-0.03339755-2.04781817-7.16912227-7.48815995-25.87633857 1.30954922 0.73563222c-1.65671104-6.74549648-3.62982393-13.66237617-6.33681124-20.25846123-1.84127871-4.49729033-3.91985859-8.17808994-6.35438936-11.25597041-3.90228047-4.95695127-8.8680208-8.1341455-16.11448505-10.31116113-5.60293682-1.67165244-11.825492-2.63667568-19.00164551-2.9469252C614.00244922 467.10864902 611.5591294 467.05152099 609.20369844 467.05152099zM599.51830888 567.4245043999999c-3.05854453-0.11249824-6.86414619-0.25487842-10.56867627-0.49481632-6.09511641-0.39286494-12.47587207-1.26384698-19.50261415-2.65864834-4.15276435-0.82176416-9.0525876-1.88961768-13.96119991-3.57884823l-12.81864023-4.42082726-1.04588174-13.52351162c-0.06152256-0.77957754-0.10107247-1.57936904-0.12304512-2.38179726-0.13183417-5.3348748 0.76903067-10.45002568 2.17086328-16.48361953 2.84321602-12.29745674 7.77819463-22.72814737 15.09497052-31.87477617 6.01601572-7.51013262 13.60964268-12.28691075 22.58313046-14.19146894 9.83480185-2.08912588 18.80389424-3.10688349 27.4390084-3.10688351l0.957992 0.00439453c5.63369766 0.04833896 12.24735997 0.33837364 18.85223407 2.12691885 5.96767675 1.62155566 10.0545249 3.73968545 13.27566358 6.87029854 2.96626026 2.87573467 5.30850761 6.63563496 7.1453918 11.47569258 3.7616581 9.89808222 5.84902617 20.76118682 6.20497792 32.28346143l0.01757813 0.66356367c0.10546699 3.82318066-0.05273349 7.61999414-0.19775039 11.29552031l-0.07470615 1.77711943c-0.04833896 1.37546631-0.12743964 2.5224205-0.24169571 3.50238428l-0.32519004 2.86958232-1.1074043 2.66743741c-0.11865059 0.29267138-0.25048388 0.60467783-0.39110712 0.92723115l-3.95061944 8.90317617-9.39096123 2.61646172c-10.93781075 3.04536094-21.84486065 4.09739414-35.90273847 4.81193349l-0.90965303 0.04394443L599.51830888 567.4245043999999zM693.83660469 292.04478603999996l-128.52037881-233.90744151-19.054379 55.72614815 35.18204765 70.33333359-70.40100762 70.32454453-70.41243339-70.32454453 35.21720302-70.33333359-22.70353886-57.04448643-124.93449932 235.22577891c0 0-266.20232783-140.82047227-266.20232784-280.21626123 0-38.50865332 15.87015263-74.07741357 54.73475772-74.07741357l790.27333067 0c38.62730391 0 54.90877852 35.26554199 54.90877851 73.53689501C961.92415654 142.19369795 693.83660469 292.04478603999996 693.83660469 292.04478603999996zM742.64147862 580.15086035l-0.17138409 10.99054424-9.22836621 6.18476309c-1.12937607 0.78221426-2.23678037 1.45720283-3.33978926 2.13307119C711.01894414 761.6613969800001 712.29333711 857.35955362 522.87101563 829.05044121c-66.41786953-9.90247588-138.90888281 10.55549268-180.17637803-19.38572139-51.89857295-48.49462441-55.56531094-121.27830908-41.47667227-206.69518652-3.11567256-1.65495322-6.26210596-3.52611474-9.36019951-5.66006484l-9.23715527-6.18476309-0.16698956-10.98790752c-0.47899599-28.44973477 3.11127802-52.46282198 10.84289063-70.84924277 7.03113574-16.73146758 17.38887803-29.17482012 31.25955234-36.66298008 16.49856094-55.73933174 40.20667295-97.5851376 69.86927813-127.67840068 32.33883164-32.8266167 71.22277177-51.47231045 115.23328945-58.83742617l3.92864766-0.62401289 3.95765069 0.79979149c48.72577324 10.21272539 87.64750547 29.67139424 118.64163251 62.19039903 28.7749248 30.11523487 50.22428379 70.77717334 65.9872125 125.08566855 13.35036973 7.70524628 23.36094932 20.25846123 30.08886768 36.84315323C739.69719013 528.6811866200001 743.10289648 552.26801133 742.64147862 580.15086035zM692.43037753 526.27126435c-3.77484083-9.23715527-8.93833154-15.31469355-15.45092138-17.56905117l-10.73566582-3.74407998-2.93110488-10.8543164c-14.11061133-52.0936875-32.98921172-89.86407187-58.26175137-116.33190469-23.87949609-24.95174414-54.15732598-40.36311562-92.26168858-48.95867988-33.51215215 6.2796832-63.06929121 20.86489599-87.62113915 45.78148477-26.34918223 26.77983925-47.37667412 65.64883887-61.98561651 119.03713417l-3.09809443 11.35967959-11.37022559 3.49799062c-6.66200127 2.01881513-11.92656445 7.97770283-15.76029199 17.18673312-3.84075791 9.06577119-6.18476309 20.68472373-7.14978632 34.48332773 10.41487031 1.56442763 22.08216182 4.52189971 27.83451005 0.76199941 0.63016523 1.95289805 1.25681573 4.12815586 1.94850352 6.62860372l0.30761191-0.04394444 0.84637265 4.54211367c3.14203887 12.40116592 6.67254815 90.02227237 9.83480187 102.52451074 1.24099541 3.65179658 1.68747276 7.79752969 4.0824536 10.73127129 15.25492881-20.68648154 130.70178896-23.03575928 197.71730508 23.24669414l-12.5198165-33.76439472 12.73075049-2.49781114 14.30836171 22.74308877-1.79733427-15.92991738 13.55690918-1.77975616 8.41539111 26.15318966c16.60666465-9.47006104 34.99308545-22.14807891 51.39760518-15.25492882 5.45791904-12.27812168 9.66781231-87.06040576 12.39237773-101.49620712l3.54193506-18.50946593 6.16103262 0.38407589 2.88276592-9.65638652c7.25964786 0.87889219 13.61403721 1.03006143 19.8805377 1.13816513C698.38047705 546.6211300800001 696.08217412 535.2658450199999 692.43037753 526.27126435z"  horiz-adv-x="1024" />

    
    <glyph glyph-name="zhuomianchi" unicode="&#59085;" d="M895.13073778 832.97621333L128.90567111 839.11111111a91.20426667 91.20426667 0 0 1-91.22247111-91.24067556v-543.43907555a91.22247111 91.22247111 0 0 1 91.22247111-91.24067555l274.04970667-2.22094223v-49.51608889c0-12.65208889 10.23089778-22.82837333 22.79196444-22.82837333h172.46890667a22.75555555 22.75555555 0 0 1 22.79196444 22.82837333v47.78666667l274.12252445-2.16632889c50.42631111 0 91.20426667 40.75975111 91.20426667 91.20426667V741.73553778a91.24067555 91.24067555 0 0 1-91.20426667 91.24067555z m-19.35132445-690.27612444a38.48419555 38.48419555 0 1 0 0.03640889 76.93198222 38.48419555 38.48419555 0 0 0-0.03640889-76.93198222z m38.48419556 152.49863111c0-25.21315555-22.84657778-45.60213333-50.95424-45.60213333H159.94424889c-28.16227555 0-50.95424 20.40718222-50.95424 45.60213333V727.06275555c0 25.17674667 22.79196445 45.60213333 50.95424 45.60213334h703.36512c28.10766222 0 50.95424-20.44359111 50.95424-45.60213334v-431.86403555zM807.36711111-71.11111111000002v25.68647111a45.60213333 45.60213333 0 0 1-45.60213333 45.56572445H265.98513778a45.62033778 45.62033778 0 0 1-45.60213333-45.56572445V-71.11111111000002h586.98410666zM465.32380445 574.98282667c0-12.57927111-10.26730667-22.79196445-22.82837334-22.79196445h-114.01443556a22.75555555 22.75555555 0 0 0-22.79196444 22.79196445v112.15758222a22.75555555 22.75555555 0 0 0 22.79196444 22.77376h114.01443556c12.56106667 0 22.82837333-10.23089778 22.82837334-22.77376v-112.15758222zM708.55338667 574.98282667c0-12.57927111-10.19448889-22.79196445-22.82837334-22.79196445H571.71057778a22.81016889 22.81016889 0 0 0-22.79196445 22.79196445v112.15758222c0 12.54286222 10.19448889 22.77376 22.79196445 22.77376h114.01443555c12.61568 0 22.82837333-10.23089778 22.82837334-22.77376v-112.15758222zM465.32380445 341.23776c0-12.57927111-10.26730667-22.79196445-22.82837334-22.79196445h-114.01443556a22.75555555 22.75555555 0 0 0-22.79196444 22.79196445v112.13937778c0 12.56106667 10.13987555 22.79196445 22.79196444 22.79196444h114.01443556c12.56106667 0 22.82837333-10.23089778 22.82837334-22.79196444v-112.13937778zM708.55338667 341.23776c0-12.57927111-10.19448889-22.79196445-22.82837334-22.79196445H571.71057778a22.81016889 22.81016889 0 0 0-22.79196445 22.79196445v112.13937778c0 12.56106667 10.19448889 22.79196445 22.79196445 22.79196444h114.01443555c12.61568 0 22.82837333-10.23089778 22.82837334-22.79196444v-112.13937778z"  horiz-adv-x="1024" />

    
    <glyph glyph-name="renshiguanli" unicode="&#58903;" d="M96.77937778 587.77941333c0-20.96696889 13.02186667-38.22933333 29.56856889-39.21464888 11.40622222-72.27733333 61.16693333-126.63466667 120.65905778-126.63466667 59.55242667 0 109.24942222 54.35733333 120.71822222 126.63466667h2.02979555c17.20547555 0 31.00444445 17.5616 31.00444445 39.21464888 0 19.23299555-10.87374222 35.30183111-25.27004445 38.67420445h0.06030223s33.3312 112.47729778-36.6751289 144.49322667c-8.42183111 96.85788445-178.77902222 20.84636445-178.77902222 20.84636444-87.68739555-45.63626667-45.45763555-168.41386667-45.45763555-168.41386667-10.63139555-6.33287111-17.85742222-19.83260445-17.85742223-35.59992889z m31.17966222 30.88042667h0.83740445l2.50993777-0.05916445v9.10677334l9.07719111 52.26837333c5.7344 8.77909333 11.1104 14.12664889 11.1104 14.12664889 77.53272889-3.34734222 138.10119111 35.18350222 138.10119112 35.18350222 52.08746667 40.1408 68.33493333-112.53646222 68.33493333-112.53646222l1.73169777 0.23893334 6.86876445 1.3767111c1.07406222 0.23893333 2.14926222 0.29696 3.22332445 0.29696 5.7344 0 11.17184-2.89678222 15.52952888-8.27392 4.60003555-6.00177778 7.28860445-13.94574222 7.28860445-22.60650666 0-8.6016-2.68856889-16.63886222-7.28860445-22.52117334-4.35882667-5.37372445-9.79626667-8.36380445-15.52952888-8.36380444-0.35612445 0-0.83740445 0-1.31185778 0.09329778l-7.82449778 0.62577778-1.37671111-7.73688889c-5.25539555-33.65774222-19.35132445-64.06257778-40.08049778-85.92497778-9.97148445-10.66211555-21.26165333-19.08508445-33.39036445-24.90823111-12.42339555-5.76512-25.38382222-8.80867555-38.76408888-8.80867556-13.2608 0-26.34296889 3.04355555-38.76750222 8.80867556-12.06385778 5.82314667-23.29372445 14.24611555-33.50983112 24.81948444-20.48568889 21.95114667-34.70222222 52.3264-40.07936 86.01372445l-1.0752 6.66055111-6.69013333 0.35726222c-11.82492445 0.80782222-21.68376889 14.66595555-21.68376889 30.88384 0 8.66076445 2.62940445 16.60472889 7.34890667 22.60650667 4.3008 5.37486222 9.67566222 8.27278222 15.41006222 8.27278222z m473.55904-259.71825778H471.60092445c-20.01123555 26.07559111-49.99850667 48.23608889-86.79196445 64.18204445L277.59047111 242.97244445l-13.14133333 80.96768a30.47765333 30.47765333 0 0 1 14.57379555 26.04373333c0 17.08259555-13.79669333 30.82012445-30.76209778 30.82012444-17.02456889 0-30.70179555-13.73752889-30.70179555-30.82126222 0-10.99207111 5.7344-20.66887111 14.63182222-26.04373333l-12.90012444-79.53521778-106.4448 178.71872c-60.15089778-26.01301333-102.43982222-68.60003555-111.45898667-118.14912h-1.91146666v-223.03857778h4.95729777c23.05592889-15.41347555 123.64458667-27.12007111 244.42652445-27.12007111 120.65792 0 221.30688 11.70659555 244.42311111 27.12007111h4.90040889V304.97564445h-1.91260445c0 0.83740445-0.36067555 1.792-0.47900444 2.50652444h105.72686222v-307.02364444H847.01866667v49.8176H651.45287111v257.20604444H847.01866667v51.45941333H651.45287111V610.3859199999999H847.01866667v49.78574222H601.51808v-301.23008z m257.68391111 373.95797333v-181.8567111h173.70225778V732.8995555500001H859.20199111zM1002.43911111 581.23719111h-112.89372444V702.55502222h112.89372444v-121.31783111zM859.20199111 239.38844444999995h173.70225778V421.27587555H859.20199111V239.38844444999995z m30.34339556 151.54289777h112.89372444V269.73297778000006h-112.89372444V390.93134222z m-30.34453334-454.74247111h173.70339556V118.01258667000002H859.20199111v-181.82371556z m30.34453334 151.60206222h112.89372444V-33.58720000000005h-112.89372444V87.79093333000003z m-717.74435556 488.87694222H218.45333333c8.90083555 0 16.06997333 7.22716445 16.06997334 16.128v14.75242667h17.61962666v-14.75242667c0-8.90083555 7.16913778-16.128 16.06769778-16.128h46.65116444c8.84053333 0 16.06883555 7.22716445 16.06883556 16.128V622.2734222199999c0 8.86897778-7.22830222 16.128-16.06883556 16.128h-46.65116444c-8.89969778 0-16.06769778-7.25788445-16.06769778-16.128v-10.00789333h-17.61962666v10.00789333c0 8.86897778-7.16913778 16.128-16.06997334 16.128h-46.65002666c-8.84053333 0-16.128-7.25788445-16.128-16.128v-29.47982222c0-8.89969778 7.28974222-16.12686222 16.128-16.12686222z m83.92590222 45.60668445c0 6.92906667 5.61493333 12.51328 12.48369778 12.51328h46.65116444c6.8096 0 12.42567111-5.58535111 12.42567112-12.51328v-29.47982222c0-6.83804445-5.61607111-12.42453333-12.42453334-12.42453333h-46.65230222c-6.86762667 0-12.48369778 5.58648889-12.48369778 12.42453333v29.47982222z m-96.28899555 0c0 6.92906667 5.67523555 12.51328 12.36423111 12.51328h46.65002666c6.86876445 0 12.36536889-5.58535111 12.3653689-12.51328v-29.47754667c0-6.83918222-5.49660445-12.42453333-12.3653689-12.42453333h-46.65002666c-6.69013333 0-12.36423111 5.58535111-12.36423111 12.42453333V622.2734222199999z"  horiz-adv-x="1024" />

    
    <glyph glyph-name="jianliguanli" unicode="&#59181;" d="M294.4 704l-136.5-24.9c-11.3-2.1-18.8-13.2-16.8-24.8l153.3-692.7V704zM947.2 832H345.6C331.5 832 320 820.5 320 806.4v-844.8c0-14.1 11.5-25.6 25.6-25.6h601.6c14.1 0 25.6 11.5 25.6 25.6V806.4c0 14.1-11.5 25.6-25.6 25.6zM409.6 652.8h281.6v-25.6H409.6v25.6z m0-89.6h204.8v-25.6H409.6v25.6z m268.8-473.6H409.6v25.6h268.8v-25.6z m0 89.6H409.6v25.6h268.8v-25.6z m192-89.6c0-7.1-5.7-12.8-12.8-12.8H742.4c-7.1 0-12.8 5.7-12.8 12.8V204.79999999999995c0 7.1 5.7 12.8 12.8 12.8h115.2c7.1 0 12.8-5.7 12.8-12.8v-115.2z m0 179.2H409.6v25.6h460.8v-25.6z m0 89.6H409.6V384h460.8v-25.6z m0 89.6H409.6v25.6h460.8V448z m12.8 103.4c0-14.7-11.9-26.6-26.6-26.6h-74.8c-14.7 0-26.6 11.9-26.6 26.6v9.8c0 29.4 23.8 53.2 53.2 53.2h10.8c-21.2 0-38.4 17.2-38.4 38.4s17.2 38.4 38.4 38.4 38.4-17.2 38.4-38.4-17.2-38.4-38.4-38.4H830c29.4 0 53.2-23.8 53.2-53.2v-9.8zM134 563.2l-93.8-33.7c-11.5-4.1-17.4-16.6-13.2-28l229-475.9-122 537.6z"  horiz-adv-x="1024" />

    
    <glyph glyph-name="message" unicode="&#59045;" d="M932.9954336 752.8062239999999H89.34232213c-28.55629867 0-51.76108907-23.89830293-52.22306666-53.50961173L491.9012672 343.19967147c9.67093867-7.15136107 28.9658528-7.1273344 39.2057984 0.4630688l454.2654272 352.9329984v1.80094613c0.00109227 30.04598293-23.51386773 54.4095392-52.3770592 54.4095392z m-31.7977824-591.2039456c4.0638688-3.630288 6.68829227-8.930464 6.68829227-14.94818027 0-10.9105216-8.53947627-19.7590752-19.037168-19.7590752-5.91614613 0-11.16608427 2.8832608-14.66422187 7.33047254l-0.36040853-0.35713067-16.3100832 16.76987627s-0.15399253 0.181296-0.4106464 0.41283093L652.83965867 361.33582079999996l-0.25665387-0.20532373-86.5404256-67.22148374c-15.79677547-11.7580256-35.4499136-17.6228416-55.00038933-17.6228416-19.4510912 0-38.7438208 5.7621536-54.18018987 17.2351296l-87.0034944 68.12359574c-0.0524224-0.0524224-0.10484587-0.0775424-0.1550848-0.12887254L148.56275733 133.86945706999995l-0.36040746 0.35713066c-3.49813867-4.44721173-8.74589227-7.33047253-14.66313067-7.33047253-10.49441493 0-19.03826027 8.8485536-19.03826027 19.7590752 0 6.0177152 2.6244224 11.3168 6.68938454 14.94818027L322.31637013 398.84551787 37.0144096 622.2731317299999v-552.64251306c0-29.995744 23.4636288-54.4357504 52.3290048-54.4357504H932.99652587c28.86428267 0 52.3781504 24.4400064 52.37815146 54.4357504v550.0694208L700.48445547 398.32893333l200.71319573-236.72665493z"  horiz-adv-x="1024" />

    
    <glyph glyph-name="xiaoxi" unicode="&#58931;" d="M512 26.453333329999964h-79.46666667L214.08-92.69333332999997V125.75999999999999c-108.90666667 76.48-178.77333333 186.24-178.77333333 317.86666667 0 230.29333333 213.44 417.06666667 476.69333333 417.06666666s476.69333333-186.77333333 476.69333333-417.06666666c0-230.4-213.44-417.17333333-476.69333333-417.17333334z m0 774.61333334c-230.29333333 0-417.06666667-160-417.06666667-357.44 0-121.17333333 71.25333333-233.28 178.77333334-297.92v-132.37333334l158.82666666 72.85333334H512c230.29333333 0 417.06666667 160.10666667 417.06666667 357.54666666 0 197.33333333-186.77333333 357.33333333-417.06666667 357.33333334z m238.4-417.06666667c-32.96 0-59.62666667 26.66666667-59.62666667 59.62666667s26.66666667 59.62666667 59.62666667 59.62666666c32.85333333 0 59.52-26.66666667 59.52-59.62666666s-26.66666667-59.62666667-59.52-59.62666667zM512 384c-32.96 0-59.62666667 26.66666667-59.62666667 59.62666667s26.66666667 59.62666667 59.62666667 59.62666666 59.62666667-26.66666667 59.62666667-59.62666666-26.66666667-59.62666667-59.62666667-59.62666667z m-238.29333333 0c-32.85333333 0-59.52 26.66666667-59.52 59.62666667s26.66666667 59.62666667 59.52 59.62666666c32.96 0 59.62666667-26.66666667 59.62666666-59.62666666-0.10666667-32.96-26.77333333-59.62666667-59.62666666-59.62666667z"  horiz-adv-x="1024" />

    
    <glyph glyph-name="guanbi" unicode="&#58883;" d="M949.76 749.056l-72.704 72.704c-24.064 24.064-62.976 24.064-87.04 0L512 543.744 233.984 821.76c-24.064 24.064-62.976 24.064-87.04 0L74.24 749.056c-24.064-24.064-24.064-62.976 0-87.04L352.256 384l-278.016-278.016c-24.064-24.064-24.064-62.976 0-87.04l72.704-72.704c24.064-24.064 62.976-24.064 87.04 0l278.016 278.016 278.016-278.016c24.064-24.064 62.976-24.064 87.04 0l72.704 72.704c24.064 24.064 24.064 62.976 0 87.04L671.744 384l278.016 278.016c24.064 24.064 24.064 62.976 0 87.04z"  horiz-adv-x="1024" />

    
    <glyph glyph-name="jianliguanli1" unicode="&#58880;" d="M269.22666667 793.6L134.4 768.21333333c-11.09333333-2.13333333-18.56-13.44-16.64-25.38666666l151.36-707.73333334V793.6zM126.4 535.6800000000001l-86.50666667-34.24c-10.56-4.16-16-16.96-12.16-28.37333333l211.2-483.52-112.53333333 546.13333333zM936.74666667 839.1466666700001H329.92c-16.74666667 0-30.29333333-13.54666667-30.29333333-30.29333334v-849.49333333c0-16.74666667 13.54666667-30.29333333 30.29333333-30.29333333h606.82666667c16.74666667 0 30.29333333 13.54666667 30.29333333 30.29333333V808.74666667c0.10666667 16.74666667-13.54666667 30.4-30.29333333 30.4zM390.61333333 657.06666667h212.37333334v-60.69333334H390.61333333V657.06666667z m0-151.68H512v-60.69333334H390.61333333v60.69333334zM845.76 110.93333332999998H390.61333333v60.69333334h455.14666667V110.93333332999998z m0 151.68H390.61333333v60.69333334h455.14666667v-60.69333334z m0 182.08c0-16.74666667-13.54666667-30.29333333-30.29333333-30.29333333H694.08c-16.74666667 0-30.29333333 13.54666667-30.29333333 30.29333333v30.29333334c0 50.24 40.74666667 90.98666667 90.98666666 90.98666666-33.49333333 0-60.69333333 27.2-60.69333333 60.69333334s27.2 60.69333333 60.69333333 60.69333333 60.69333333-27.2 60.69333334-60.69333333-27.2-60.69333333-60.69333334-60.69333334c50.24 0 90.98666667-40.74666667 90.98666667-90.98666666v-30.29333334z"  horiz-adv-x="1024" />

    
    <glyph glyph-name="caidan" unicode="&#58881;" d="M950.7194 554.3969999999999l-212.814-212.8158c-15.039-15.0408-38.3508-15.0408-53.3916 0L472.4504 554.3969999999999c-15.0408 15.0408-15.0408 38.3508 0 53.3916L685.2644 819.852c15.0408 15.0408 38.3526 15.0408 53.3916 0l212.0634-212.814c15.0408-14.2902 15.0408-38.3526 0-52.641zM403.2674-66H102.4694c-21.0564 0-37.6002 16.5438-37.6002 37.6002v300.798c0 21.0564 16.5438 37.6002 37.6002 37.6002h300.798c21.0564 0 37.6002-16.5438 37.6002-37.6002v-300.798c0-21.0564-16.5456-37.6002-37.6002-37.6002z m0 451.197H102.4694c-21.0564 0-37.6002 16.5438-37.6002 37.6002V723.5952c0 21.0564 16.5438 37.6002 37.6002 37.6002h300.798c21.0564 0 37.6002-16.5438 37.6002-37.6002v-300.798c0-21.0564-16.5456-37.6002-37.6002-37.6002z m150.399-75.1986h300.798c21.0564 0 37.6002-16.5438 37.6002-37.6002v-300.798c0-21.0564-16.5438-37.6002-37.6002-37.6002h-300.798c-21.0564 0-37.6002 16.5438-37.6002 37.6002v300.798c0 21.0564 16.5438 37.6002 37.6002 37.6002z"  horiz-adv-x="1024" />

    
    <glyph glyph-name="xiangmu" unicode="&#58882;" d="M771.94666667 370.13333333H451.62666667c-26.13333333 0-47.36 21.12-47.36 47.36 0 26.13333333 21.12 47.25333333 47.36 47.25333334h320.32c26.13333333 0 47.36-21.12 47.36-47.25333334 0-26.24-21.33333333-47.36-47.36-47.36m0-187.30666666H451.62666667c-26.13333333 0-47.36 21.12-47.36 47.36 0 26.13333333 21.12 47.25333333 47.36 47.25333333h320.32c26.13333333 0 47.36-21.12 47.36-47.25333333 0-26.13333333-21.33333333-47.36-47.36-47.36m217.49333333-154.56V626.56c0 72.64-66.24 65.81333333-66.24 65.81333333s-395.41333333-0.42666667-374.29333333 0c-22.50666667-0.42666667-34.02666667 11.84-34.02666667 11.84s-15.68 27.2-44.05333333 69.86666667c-29.54666667 44.90666667-64 37.65333333-64 37.65333333h-291.2C34.88 811.73333333 34.13333333 734.08 34.13333333 734.08v-701.97333333c0-86.61333333 65.38666667-75.94666667 65.38666667-75.94666667h829.65333333c70.08 0 60.26666667 72.10666667 60.26666667 72.10666667m-59.41333333 35.41333333c0-26.77333333-21.54666667-48.32-48.32-48.32H141.86666667c-26.77333333 0-48.32 21.54666667-48.32 48.32V564.58666667c0 26.77333333 21.54666667 48.32 48.32 48.32h739.84c26.77333333 0 48.32-21.54666667 48.32-48.32v-500.90666667M225.38666667 417.38666667c0-27.94666667 22.61333333-50.56 50.56-50.56s50.56 22.61333333 50.56 50.56-22.61333333 50.56-50.56 50.56-50.56-22.61333333-50.56-50.56m0-187.2c0-27.94666667 22.61333333-50.56 50.56-50.56s50.56 22.61333333 50.56 50.56-22.61333333 50.56-50.56 50.56-50.56-22.61333333-50.56-50.56m0 0z"  horiz-adv-x="1024" />

    
    <glyph glyph-name="xiaoxi-1" unicode="&#58884;" d="M637.8000000000001 480h-256c-17.6 0-32 14.399999999999999-32 32s14.399999999999999 32 32 32h256c17.7 0 32-14.399999999999999 32-32s-14.399999999999999-32-32-32zM577 352H381.7c-17.6 0-32 14.3-32 32s14.399999999999999 32 32 32H577c17.7 0 32-14.3 32-32s-14.3-32-32-32z m-57.49999999999999-287.6C479.6 7.899999999999864 368.4-44.999999999999886 331.9-61.200000000000045c-4.2-1.7999999999999998-8.599999999999998-2.8-13-2.8-8.1 0-16.2 3.1-22.3 9-9.4 9.1-12.3 23-7.4 35.099999999999994 15.800000000000002 39 29.8 81.6 33.1 99.8-2.7 4.7-4.299999999999999 10.1-4.299999999999999 15.9 0 17.7 14.399999999999999 32 32 32 12 0 23.2-6 30-15.9 5.6-8.3 14-20.7-3.5-79 47.8 27.2 88 56.4 94.1 73.8 5.3 15 20.7 22.9 35.8 20.2 1.8999999999999997 0.4 3.5999999999999996 1.1 5.6 1.1 211.8 0 384 143.6 384 320 0 176.5-172.2 320-384 320S128 624.5 128 448c0-94.9 52.8-185.2 144.9-247.7 14.6-9.9 18.4-29.900000000000002 8.5-44.5s-29.900000000000002-18.5-44.5-8.5C127 222 64 331.5 64 448 64 659.8 264.9 832 512 832c246.99999999999997 0 448-172.2 448-384 0-209.5-196.89999999999998-380.1-440.5-383.6z"  horiz-adv-x="1024" />

    
    <glyph glyph-name="shezhi-tianchong" unicode="&#58936;" d="M992 480c-4.266667 27.733333-21.333333 46.933333-42.666667 46.933333h-4.266666c-70.4 0-128 57.6-128 130.133334 0 23.466667 10.666667 49.066667 10.666666 49.066666 12.8 23.466667 4.266667 55.466667-17.066666 70.4h-2.133334l-123.733333 68.266667H682.666667c-6.4 2.133333-14.933333 4.266667-23.466667 4.266667-17.066667 0-34.133333-6.4-44.8-19.2-14.933333-14.933333-61.866667-55.466667-100.266667-55.466667-38.4 0-85.333333 40.533333-100.266666 57.6-10.666667 14.933333-29.866667 21.333333-46.933334 21.333333-8.533333 0-17.066667-2.133333-23.466666-4.266666H341.333333l-128-70.4h-2.133333c-19.2-17.066667-27.733333-49.066667-17.066667-72.533334 0 0 10.666667-25.6 10.666667-49.066666 0-70.4-57.6-130.133333-128-130.133334h-2.133333c-19.2 0-36.266667-19.2-42.666667-46.933333 0-2.133333-10.666667-55.466667-10.666667-96 0-42.666667 10.666667-96 10.666667-98.133333 4.266667-27.733333 21.333333-46.933333 42.666667-46.933334h4.266666c70.4 0 128-57.6 128-130.133333 0-23.466667-10.666667-49.066667-10.666666-49.066667-12.8-23.466667-4.266667-53.333333 17.066666-68.266666h2.133334l119.466666-68.266667h2.133334c6.4-4.266667 14.933333-4.266667 23.466666-4.266667 17.066667 0 34.133333 6.4 46.933334 19.2 14.933333 14.933333 64 59.733333 102.4 59.733334 40.533333 0 87.466667-44.8 102.4-61.866667 10.666667-12.8 27.733333-19.2 46.933333-19.2 8.533333 0 17.066667 2.133333 23.466667 4.266667h2.133333l123.733333 70.4h2.133334c21.333333 14.933333 29.866667 46.933333 19.2 70.4 0 0-10.666667 25.6-10.666667 49.066666 0 70.4 57.6 130.133333 128 130.133334h4.266667c19.2 0 36.266667 17.066667 42.666666 46.933333 0 2.133333 10.666667 55.466667 10.666667 98.133333-2.133333 38.4-12.8 91.733333-12.8 93.866667zM512 213.33333300000004c-93.866667 0-170.666667 76.8-170.666667 170.666667s76.8 170.666667 170.666667 170.666667 170.666667-76.8 170.666667-170.666667-76.8-170.666667-170.666667-170.666667zM512 514.133333c-70.4 0-130.133333-57.6-130.133333-130.133333 0-72.533333 57.6-130.133333 130.133333-130.133333 70.4 0 130.133333 57.6 130.133333 130.133333 0 72.533333-59.733333 130.133333-130.133333 130.133333z"  horiz-adv-x="1024" />

    
    <glyph glyph-name="wodebanji" unicode="&#58937;" d="M312.1152 565.31626667c0-49.152-21.84533333-91.7504-56.79786667-122.33386667 5.46133333 1.09226667 12.01493333 3.2768 17.47626667 4.36906667 30.58346667 6.5536 60.07466667 9.8304 85.1968 8.73813333L457.38666667 591.5306666700001c27.30666667 37.13706667 77.55093333 46.96746667 111.4112 22.9376l15.29173333-10.92266667c34.95253333-25.12213333 40.41386667-75.3664 13.1072-112.50346667L478.13973333 328.2944c-3.2768-2.18453333-6.5536-5.46133333-9.8304-7.64586667-66.62826667-63.35146667-108.1344-8.73813333-113.59573333-84.10453333v-84.10453333h314.5728c-17.47626667 0-31.67573333 14.19946667-31.67573333 31.67573333v21.84533333c0 17.47626667 14.19946667 30.58346667 31.67573333 30.58346667h121.2416c17.47626667 0 31.67573333-14.19946667 31.67573333-30.58346667v-21.84533333c0-17.47626667-14.19946667-31.67573333-31.67573333-31.67573333H894.29333333c39.3216 0 70.99733333 30.58346667 70.99733334 68.8128V699.66506667c0 38.22933333-31.67573333 68.8128-70.99733334 68.8128H185.41226667c-30.58346667 0-55.7056-18.56853333-66.62826667-44.78293334 9.8304 2.18453333 20.75306667 3.2768 30.58346667 3.2768 90.65813333 0 162.74773333-72.0896 162.74773333-161.65546666zM152.64426667 454.99733333c58.9824 0 107.04213333 48.05973333 107.04213333 107.04213334s-48.05973333 107.04213333-107.04213333 107.04213333-107.04213333-48.05973333-107.04213334-107.04213333 48.05973333-107.04213333 107.04213334-107.04213334z m286.17386666-104.8576c1.09226667 1.09226667 12.01493333 19.6608 13.1072 20.75306667l102.67306667 143.08693333c13.1072 17.47626667 9.8304 41.50613333-6.5536 52.4288l-7.64586667 5.46133334c-16.384 12.01493333-39.3216 6.5536-52.4288-10.92266667l-100.48853333-137.6256-166.02453333-21.84533333H111.13813333m3.2768 0h-24.02986666c-49.152 0-89.56586667-40.41386667-89.56586667-89.56586667v-223.91466667c0-40.41386667 26.2144-74.27413333 63.35146667-85.1968 5.46133333-3.2768 10.92266667-4.36906667 17.47626666-4.36906666v1.09226666c3.2768 0 5.46133333-1.09226667 8.73813334-1.09226666h125.61066666c49.152 0 89.56586667 40.41386667 89.56586667 89.56586666V309.72586666999996l116.87253333 28.39893333c7.64586667 4.36906667 13.1072 8.73813333 16.384 12.01493333m545.04106667-254.49813333H359.08266667c0-6.5536-1.09226667-13.1072-1.09226667-18.56853333-3.2768-29.4912-13.1072-55.7056-27.30666667-78.6432h653.17546667c20.75306667 0 38.22933333 16.384 38.22933333 37.13706666v21.84533334c-1.09226667 21.84533333-17.47626667 38.22933333-38.22933333 38.22933333z"  horiz-adv-x="1024" />

    
    <glyph glyph-name="xiangmu1" unicode="&#58956;" d="M1101.19485969-15.142322809999996V654.92787281c0 80.41511344-74.45357156 74.45357156-74.45357157 74.45357063h-419.93630156c-23.82227531 0-38.72015812 11.94697875-38.72015812 11.94697875s-17.92046812 29.78381812-50.63129532 77.44031625C487.669715 872.37483187 448.94955687 863.43849187 448.94955687 863.43849187H124.32625156C32 863.43849187 32 777.07378313 32 777.07378313v-786.25456313c0-98.28779344 74.45357156-86.36470875 74.45357156-86.36470875H1035.66568156c77.39252812-0.01194656 65.52917813 80.40316687 65.52917813 80.40316594zM303.05305344 154.61229844000002c-32.75861531 0-56.58089156 23.82227531-56.58089157 56.58089062S270.25859656 267.84576188000005 303.05305344 267.84576188000005s56.58089156-26.80902 56.58089062-56.58089063-23.84616937-56.65257281-56.58089062-56.65257281z m0 211.46152312c-32.75861531 0-56.58089156 23.82227531-56.58089157 56.58089063 0 29.78381812 23.82227531 56.58089156 56.58089157 56.58089156s56.58089156-26.80902 56.58089062-56.58089156-23.84616937-56.58089156-56.58089062-56.58089063z m553.95750843-208.47477844H499.58085313a53.60609344 53.60609344 0 1 0 0 107.21218688h357.39386812a53.60609344 53.60609344 0 1 0 0-107.21218688z m0 211.46152313H499.58085313a53.60609344 53.60609344 0 1 0 0 107.21218687h357.39386812a53.60609344 53.60609344 0 1 0 0-107.21218687z"  horiz-adv-x="1141" />

    
    <glyph glyph-name="zuixiaohua1" unicode="&#58909;" d="M80.31194075 455.60414815h863.3761185c39.68568889 0 71.96823703-32.16118518 71.96823705-71.96823704 0-39.68568889-32.16118518-71.96823703-71.96823705-71.96823703H80.31194075c-39.68568889 0-71.96823703 32.16118518-71.96823705 71.96823703s32.16118518 71.96823703 71.96823705 71.96823704z"  horiz-adv-x="1024" />

    
    <glyph glyph-name="icon-menu" unicode="&#58885;" d="M126.57777738 869.45185223h970.90370447a97.09036999 97.09036999 0 0 0 0-194.18074112H126.57777738a97.09036999 97.09036999 0 0 0 0 194.18074112z m0-388.36148224h970.90370447a97.09036999 97.09036999 0 0 0 0-194.18073998H126.57777738a97.09036999 97.09036999 0 0 0 0 194.18073998z m0-388.3614811h970.90370447a97.09036999 97.09036999 0 0 0 0-194.18074112H126.57777738a97.09036999 97.09036999 0 0 0 0 194.18074112z"  horiz-adv-x="1228" />

    
    <glyph glyph-name="shuaxin" unicode="&#58894;" d="M790.778 381.64599999999996v-0.111h-108.36l172.13-170.278 171.813 170.278H918.334c0.03 0.878 0.055 1.95 0.055 2.565 0 251.854-205.594 456.029-459.193 456.029C205.601 840.129 0.001 635.954 0.001 384.1c0-251.857 205.6-456.028 459.195-456.028 146.462 0 276.804 68.176 360.885 174.241l-37.545 37.14-53.762 53.177c-60.221-83.4-158.587-137.882-269.579-137.882-182.877 0-331.636 147.747-331.636 329.353 0 181.603 148.76 329.35 331.636 329.35 182.88 0 331.64-147.747 331.64-329.35 0-0.587-0.03-1.605-0.043-2.455h-0.014z"  horiz-adv-x="1027" />

    
    <glyph glyph-name="laoshi" unicode="&#58886;" d="M619.46 537.1800000000001s-29.64 1.68-31.14-31.14c0 0 0.48-29.52 31.14-31.2609375 0 0 28.62 0.7209375 31.26 31.2609375 0 0.0009375-3.9 29.6409375-31.26 31.14z m-187.68 0s-30.78-2.4009375-31.26-31.14c0 0-3.66-29.52 31.26-31.2609375 0 0 26.4609375-2.4 31.1409375 31.2609375-0.0009375 0.0009375-0.4809375 27.6-31.1409375 31.14zM395.06 216.89999999999998s-184.5-87.9009375-205.5-309.24h302.76L395.06 216.89999999999998z m149.1-309.24h317.46S837.08 134.94093750000002 656 216.89999999999998l-111.84-309.24z m277.92 219.0009375s-95.82 162.42-312.3 159.12c0 0-193.56 4.56-289.68-171.6l-0.24 414.9009375S189.92 825.181875 510.02 860.341875c0 0 305.4009375 1.92 312.06-308.58v-425.1009375z m-67.74 430.74S542.6 538.56 404.78 645c-137.94 106.2 0 0 0 0S327.5 567.24 289.1 556.26c-38.16-11.0390625 0 0 0 0S276.14 351.9 513.26 322.5c237.3-29.52 0 0 0 0s216.36-15.9 241.08 232.26c24.72 248.28 0 0 0 0m-134.88-17.58s-29.64-0.84-31.14-31.14c-1.32-30.42 0 0 0 0s1.44-28.8009375 31.14-31.2609375c29.7-2.4590625 2.6390625 0.2409375 2.6390625 0.2409375s28.1409375 5.4590625 28.62 31.02c0.66 25.44 0 0 0 0s-2.6390625 30.5409375-31.2590625 31.14c-28.38 0.78 0-2.4009375 0-2.4009375m-187.68 2.4009375s-27.48 0.36-31.26-31.14c-3.66-31.56 0 0 0 0s1.68-33.0609375 31.26-31.2c29.4 1.8 0 0 0 0s27.6-1.8 31.1409375 31.26c3.7790625 32.9409375 0 0 0 0s-2.7009375 30.4809375-31.1409375 31.08c-28.56 0.72 0 0 0 0"  horiz-adv-x="1024" />

    
    <glyph glyph-name="zhuti" unicode="&#58987;" d="M1004.094293 574.907733L762.737493 816.264533a68.266667 68.266667 0 0 1-96.546133 0l-30.293333-30.293333a68.283733 68.283733 0 0 0-48.264534-20.002133h-151.1936a68.181333 68.181333 0 0 0-48.264533 20.002133l-30.293333 30.293333a68.266667 68.266667 0 0 1-96.546134 0L19.962027 574.907733a68.266667 68.266667 0 0 1 0-96.546133l96.546133-96.546133a67.84 67.84 0 0 1 66.645333-17.271467c10.8032 3.072 21.674667-4.181333 21.674667-15.4112V0c0-37.546667 30.72-68.266667 68.266667-68.266667h477.866666c37.546667 0 68.266667 30.72 68.266667 68.266667V349.1328c0 11.229867 10.871467 18.4832 21.674667 15.4112a67.84 67.84 0 0 1 66.645333 17.271467l96.546133 96.546133a68.266667 68.266667 0 0 1 0 96.546133z"  horiz-adv-x="1024" />

    
    <glyph glyph-name="suo" unicode="&#58906;" d="M823.36103 461.48588625H362.79660312V617.40639938c0 82.51786312 67.16552813 149.68339219 149.68339219 149.68339124s149.20339688-67.16552813 149.20339688-149.68339124v-36.46179657h93.07306218v40.29894281C754.75645438 755.095545 645.85199937 864 512 864S269.24354562 755.095545 269.24354562 621.24354563v-159.75765938h-68.60457562c-33.10276969 0-59.96935594-26.86658625-59.96935594-59.96935594v-437.53686187c0-33.10276969 26.86658625-59.96935594 59.96935594-59.96935594H822.88103563c33.10276969 0 59.96935594 26.86658625 59.96935593 59.96935594V401.99558813c0.47999531 32.62371187-26.38659188 59.49029813-59.48936156 59.49029812z m-277.77826594-289.7725125v-95.47116187c0-4.31807906-3.35808938-7.6761675-7.6761675-7.6761675h-51.81319312c-4.31807906 0-8.15616281 3.83808375-8.15616282 7.6761675V171.71337374999996c-23.98755469 12.47424094-40.77893719 36.94179094-40.77893625 66.20553938 0 41.25893156 33.58276406 74.36263875 74.36170032 74.36263875 41.25893156 0 74.36170125-33.58276406 74.36170125-74.36170125 0.95998969-29.26468594-15.83139281-53.732235-40.29894188-66.20553938zM661.68339219 579.02556094a46.53700031 46.53700031 0 1 1 93.07306218 0 46.53700031 46.53700031 0 1 1-93.07306218 0z"  horiz-adv-x="1024" />

    
    <glyph glyph-name="tuichu" unicode="&#58898;" d="M787.18601656 724.8480525a473.58522281 473.58522281 0 0 0 150.0748725-161.65954969 422.89932844 422.89932844 0 0 0 54.71901563-207.41701125 413.55527344 413.55527344 0 0 0-38.07934219-175.93110093 460.01773406 460.01773406 0 0 0-102.71710031-143.22737813 494.768955 494.768955 0 0 0-339.18908719-132.6036375 486.38489906 486.38489906 0 0 0-186.10671656 35.77497 499.18457625 499.18457625 0 0 0-153.08237063 96.8286675A448.68993094 448.68993094 0 0 0 69.57537594 179.77664061999997 418.35526969 418.35526969 0 0 0 32.00884531 355.77149155999996a414.06714844 414.06714844 0 0 0 13.43998875 105.020535A448.30649437 448.30649437 0 0 0 83.20661469 558.45319406a430.32244687 430.32244687 0 0 0 61.4380725 86.71680094 508.33644281 508.33644281 0 0 0 81.53430562 72.57368906 69.50150344 69.50150344 0 0 0 51.19683188 12.09561469A68.22181688 68.22181688 0 0 0 322.17703625 704.62431938a57.59807625 57.59807625 0 0 0 12.79967625-47.42245969 63.03744656 63.03744656 0 0 0-26.81528906-42.36652594 319.22222906 319.22222906 0 0 1-103.99678688-113.85271594 304.56630375 304.56630375 0 0 1-35.90246906-145.21112625 299.7025575 299.7025575 0 0 1 26.81528906-125.37176906 323.51035031 323.51035031 0 0 1 73.72493719-103.03772437 354.10094906 354.10094906 0 0 1 108.79678313-69.75744094 359.73250688 359.73250688 0 0 1 267.06446062 0 354.03719906 354.03719906 0 0 1 109.43615719 69.56619094 330.48534375 330.48534375 0 0 1 74.30149875 103.22803687 294.83881219 294.83881219 0 0 1 27.32810156 125.56489313 303.60630469 303.60630469 0 0 1-38.39996719 148.73143687 321.46191469 321.46191469 0 0 1-108.34865812 115.19615156 61.8224475 61.8224475 0 0 0-17.15061 89.59679907 66.36556875 66.36556875 0 0 0 43.9659 25.59935343 71.23025156 71.23025156 0 0 0 51.19870687-10.55905406z m-275.70351656-372.08405906a67.19806781 67.19806781 0 0 0-47.74308375 18.431235 59.39057437 59.39057437 0 0 0-19.83935812 44.79839906V799.46923875A60.98994844 60.98994844 0 0 0 463.73941625 844.78045031 66.23806875 66.23806875 0 0 0 511.4825 863.98043438a67.58150531 67.58150531 0 0 0 48.83058375-19.19998407 60.98994844 60.98994844 0 0 0 19.83935812-45.37496062v-383.41186219a59.39057437 59.39057437 0 0 0-19.83935812-44.79839906 68.54150438 68.54150438 0 0 0-48.83058375-18.6234225z"  horiz-adv-x="1024" />

    
    <glyph glyph-name="qudao" unicode="&#58965;" d="M762.368 420.352L542.72 293.376v-253.44l219.648-126.976 219.648 126.976v253.44l-219.648 126.976zM40.96 293.376v-253.44L260.608-87.03999999999996l219.648 126.976v253.44L260.608 420.352 40.96 293.376z m690.176 434.688L511.488 855.04 291.84 728.064v-253.44l219.648-126.976 219.648 126.976V728.064z"  horiz-adv-x="1024" />

    
    <glyph glyph-name="nv" unicode="&#58887;" d="M745.8760475 207.38699625000004c-9.74416594 35.54224406-12.61949344 75.43741406-13.37826 112.21764656-0.71883188 33.74516438 0.51915656 67.53026344 2.51591156 101.19555657 0.79870219 13.61787094 1.757145 27.27567656 2.67565219 40.89354843 0.67889719 9.70423031 1.39772906 19.40846156 1.79707969 29.11269188q0.19967531 5.23149844 0.51915656 10.5029325v1.996755l1.03831312 1.71721031a140.77124719 140.77124719 0 0 1 9.86397094 19.128915 94.84587562 94.84587562 0 0 1 7.98702094 47.52277594 38.01822 38.01822 0 0 1-9.38475 21.32534625l-2.03669063 2.19643031v2.99513344q0 5.43117469-0.47922093 10.86234844v0.51915656a338.01073219 338.01073219 0 0 1-14.65618406 107.10595219C703.50490063 809.209035 604.42590406 856.01297906 512.89464312 856.01297906s-190.57032281-46.80394312-219.64307999-139.37351812a344.600025 344.600025 0 0 1-14.45650876-115.45239v-3.71396438l-2.79545718-2.47597687a36.97990781 36.97990781 0 0 1-11.42144063-23.32210125 94.80594 94.80594 0 0 1 7.98702188-47.52277594 141.72968906 141.72968906 0 0 1 11.98053093-22.24385344l1.15811813-1.79707969v-2.15649562q0-3.55422469 0.31948125-7.14838406c0.39935063-9.70423031 1.1181825-19.44839625 1.79707969-29.11269188 0.91850719-13.65780562 1.83701531-27.27567656 2.63571656-40.93348312 1.91688469-33.78509906 3.07500281-67.65006844 2.31623625-101.47510313-0.83863687-36.50068594-3.7539-75.87670031-13.37826-111.29913844l-1.11818344-3.99351093-3.99351-1.35779344c-18.64969406-6.26981156-37.13964844-12.85910438-55.42992656-19.96755281a115.81180594 115.81180594 0 0 1-39.61562438-25.83801375 142.64819625 142.64819625 0 0 1-26.63671593-38.77698657A388.56857625 388.56857625 0 0 1 128.63905813 57.31086936999998a568.83564187 568.83564187 0 0 1-15.97404188-72.28253999 7.627605 7.627605 0 0 1 0-1.23798844 7.98702094 7.98702094 0 0 1 7.98702094-7.98702094 629.69674313 629.69674313 0 0 0 113.89492031-10.70260875c31.50879844-5.87046094 62.17895906-14.05715719 93.04879594-22.48346437l21.68476219-5.87046c25.19905125-6.70909781 50.43803812-12.89903906 76.19618156-17.25196594a515.48234156 515.48234156 0 0 1 172.99887656 0c25.75814344 4.35292687 50.99712938 10.54286813 76.19618156 17.25196594l21.68476219 5.87046c30.82990125 8.3863725 61.4201925 16.57306875 92.88905531 22.44352968a631.49382281 631.49382281 0 0 0 113.57544 10.74254344h0.27954563a8.5061775 8.5061775 0 0 1 1.51753406 0 7.98702094 7.98702094 0 0 1 6.58929188 9.06526875 568.07687531 568.07687531 0 0 1-15.97404188 72.28254094 388.56857625 388.56857625 0 0 1-23.80132312 60.90103594 142.80793687 142.80793687 0 0 1-27.03606657 38.53737656 115.81180594 115.81180594 0 0 1-39.61562437 25.83801281c-17.73118687 6.98864344-35.70198469 13.41819562-53.75265188 19.52826656l-3.99351093 1.35779344-1.1181825 3.99351094zM753.58352281 209.50355719000004c-24.48021938 89.49457125-7.98702094 234.61874438-6.11007093 280.98340125q0.19967531 5.19156375 0.51915656 10.34319281a148.95794344 148.95794344 0 0 1 10.42306219 20.20716281 102.39361031 102.39361031 0 0 1 8.70585375 51.63609188A45.96530625 45.96530625 0 0 1 755.62021344 598.4315484399999q0 5.55097969-0.47922094 10.98215437a344.28054375 344.28054375 0 0 1-15.0156 109.58192906C710.21399844 814.48046906 608.77883094 864 512.89464312 864s-197.27942063-49.51953094-227.23075031-145.00436812a350.67016125 350.67016125 0 0 1-14.81592468-118.04817188 44.84712375 44.84712375 0 0 1-14.05715625-28.27405406 102.43354594 102.43354594 0 0 1 8.70585281-51.63609188 150.4754775 150.4754775 0 0 1 12.53962312-23.52177656q0-3.51428906 0.31948032-7.02857906c1.87695-46.04517656 17.97079781-190.73006344-6.38961657-280.42431-17.012355-5.71072031-35.62211437-12.2600775-55.9091475-20.20716375a123.51928125 123.51928125 0 0 1-42.29127656-27.6350925 150.27580219 150.27580219 0 0 1-28.55360062-40.6539375 394.43903625 394.43903625 0 0 1-23.96106375-62.13902438A578.10058687 578.10058687 0 0 1 104.67799437-13.893422809999947a16.45326375 16.45326375 0 0 1 0-2.51591156 15.97404188 15.97404188 0 0 1 15.97404282-15.97404282c85.38125531-0.31948125 146.20242094-16.89255 204.90702562-32.90652656 57.30687656-15.61462594 112.65693281-30.71009625 186.45700781-30.71009625s129.15013125 15.09547031 186.4969425 30.71009625c58.544865 15.97404188 119.24622469 32.50717594 204.38786907 32.90652656a15.97404188 15.97404188 0 0 1 16.21365281 18.41008407 578.06065125 578.06065125 0 0 1-16.29352219 73.32085312 394.43903625 394.43903625 0 0 1-23.96106375 62.13902438 150.27580219 150.27580219 0 0 1-28.55360062 40.6539375 123.43941094 123.43941094 0 0 1-42.29127657 27.6350925c-19.52826656 7.70747531-37.57893469 14.05715719-54.1520025 19.6480725zM297.88403469 578.98315219c11.98053188-1.27792313 15.33508031-7.5078 32.38737093-16.33345781 14.45650781-7.46786438 30.390615 88.33645312 27.55522219 117.36927468C442.48905219 601.4266818799999 607.86032375 554.1035812499999 730.6208375 537.21103219q-0.71883188-1.91688469-1.51753406-3.99351094a103.03257188 103.03257188 0 0 0-23.96106281-35.54224312 51.63609094 51.63609094 0 0 0-26.79645563-11.98053188c-11.10195937-2.07662531-15.97404188-3.71396437-21.72469781-14.57631375-26.95619625-52.51466344-71.12442281-149.95632094-144.68488688-149.95632094s-117.68875594 97.72120313-144.64495218 150.23586657c-5.59091438 10.90228406-10.62273844 12.49968844-21.68476219 14.57631375a51.63609094 51.63609094 0 0 0-26.79645563 11.98053187 103.03257188 103.03257188 0 0 0-23.96106375 35.54224313A71.20429312 71.20429312 0 0 0 288.37947969 568.679895c0.95844281 7.42792969 4.55260219 10.30325719 9.54449062 10.30325719zM583.10055781 312.89554499999997c10.22338688-84.1832025 53.51304094-98.440035 136.29851532-125.63584219 22.36365937-7.34805938 47.92212656-15.73443188 76.71533718-27.07600125a91.85074219 91.85074219 0 0 0 31.42892813-20.48670937 119.00661469 119.00661469 0 0 0 22.44352969-32.18769469 362.81043281 362.81043281 0 0 0 22.12404843-57.14713594 512.64694875 512.64694875 0 0 0 12.2600775-51.11693531 644.55260156 644.55260156 0 0 1-104.11082062-11.66105062c-6.38961656 30.03119906-20.96593031 59.90265844-35.54224313 90.09359812-89.45463656-5.91039562-178.9891425 4.67240719-232.82166562-93.20853656-53.83252219 97.92087844-143.36702812 87.33807563-232.82166469 93.20853656-14.57631375-30.03119906-29.11269187-59.90265844-35.54224312-90.09359812a644.55260156 644.55260156 0 0 1-104.11082063 11.66105062 512.80668937 512.80668937 0 0 0 12.2600775 51.11693531 362.81043281 362.81043281 0 0 0 22.12404844 57.14713594 119.00661469 119.00661469 0 0 0 22.44352969 32.18769469 91.85074219 91.85074219 0 0 0 31.42892812 20.48670937c28.79321063 11.34157031 54.31174312 19.72794187 76.71533719 27.07600125 82.86534375 27.19580719 126.15499781 41.45263969 136.37838469 125.63584219a120.04492688 120.04492688 0 0 1 142.32871593 0zM356.26915906 179.71196812000005a7.98702094 7.98702094 0 1 0 12.41981813 9.98377594c35.94159469-44.84712375 85.38125531-69.64682437 143.0874825-69.64682344s107.0660175 24.79970062 143.0874825 69.64682344a7.98702094 7.98702094 0 0 0 12.41981812-9.98377593c-33.94483969-42.29127656-80.06988656-69.0477975-134.14201875-74.55884157a32.58704625 32.58704625 0 0 0 13.45813032-26.19742969 34.86334687 34.86334687 0 0 0-69.64682438 0 32.58704625 32.58704625 0 0 0 13.65780656 26.27729907c-54.07213312 5.43117469-100.19718 32.18769469-134.341695 74.47897218zM349.91947719 730.21739719C458.22348313 629.62086562 579.90575 591.442905 724.71044188 569.75814281c-51.9156375 55.54973156-202.95020625 42.01173094-374.79096469 160.45925438z"  horiz-adv-x="1024" />

    
    <glyph glyph-name="qudao1" unicode="&#58972;" d="M54.75555555 286.75555555000005L270.75555555 406.75555555 486.75555555 286.75555555000005v-240L270.75555555-73.24444444999995 54.75555555 46.755555550000054v240z m240 432L510.75555555 838.75555555 726.75555555 718.75555555v-240L510.75555555 358.75555555000005 294.75555555 478.75555555v240z m240-432l216 120 216-120v-240L750.75555555-73.24444444999995 534.75555555 46.755555550000054v240z m48-211.776l168-93.312 168 93.312v183.552l-168 93.312-168-93.312v-183.552z"  horiz-adv-x="1024" />

    
    <glyph glyph-name="renshi" unicode="&#58888;" d="M675.606528 280.06263466999997c-45.268992-35.796992-101.656576-57.987072-163.827712-57.987072s-118.472704 22.255616-163.923968 57.987072c-85.917696-54.720512-145.774592-150.798336-153.956352-262.088704 30.06464-4.096 83.605504-8.497152 160.006144-8.497152H669.47072c76.490752 0 130.035712 4.401152 160.186368 8.497152-8.18176 111.353856-68.038656 207.368192-154.05056 262.088704zM299.651072 483.25085867c0.26624-12.230656 1.42336-24.236032 3.647488-35.864576 12.45184-64.217088 54.165504-117.495808 110.465024-147.06688 29.44-15.497216 62.439424-25.106432 98.015232-25.106432s68.665344 9.607168 98.101248 25.106432c56.213504 29.569024 98.015232 82.847744 110.379008 147.085312 2.312192 11.630592 3.3792 23.638016 3.64544 35.868672 0.090112 1.507328 0.446464 2.932736 0.446464 4.468736 0 51.986432-19.47648 99.037184-50.610176 136.013824-39.043072 46.381056-96.679936 76.537856-161.961984 76.537856-65.107968 0-122.8288-30.154752-161.875968-76.51328-31.1296-36.97664-50.696192-84.04992-50.696192-136.036352 0-1.538048 0.444416-2.95936 0.444416-4.493312zM197.279744 454.74474667c28.104704 0 53.987328 9.09312 75.333632 24.23808-0.088064 1.531904-0.446464 2.953216-0.446464 4.489216 0 51.986432 19.480576 99.059712 50.610176 136.0384-15.122432 55.320576-65.286144 96.346112-125.497344 96.346112-71.95648 0-130.480128-58.589184-130.480128-130.521088 0-71.97696 58.523648-130.59072 130.480128-130.59072zM386.635776 296.05137067c-56.211456 29.571072-98.011136 82.849792-110.374912 147.06688-23.394304-13.232128-50.163712-20.992-78.98112-20.992-37.982208 0-72.7552 13.64992-100.683776 35.600384C43.943936 424.08004267 7.118848 365.09149866999996 2.048 296.73949867c18.499584-2.514944 51.412992-5.2224 98.371584-5.2224h193.716224c42.870784 0 73.28768 2.24256 92.499968 4.534272z m364.750848 182.953984c21.346304-15.147008 47.228928-24.260608 75.247616-24.260608 72.042496 0 130.568192 58.61376 130.568192 130.59072 0 71.931904-58.525696 130.521088-130.568192 130.521088-60.03712 0-110.286848-41.046016-125.40928-96.36864 31.131648-36.978688 50.608128-84.02944 50.608128-136.015872-0.002048-1.533952-0.354304-2.957312-0.446464-4.466688z m175.929344-21.27872c-27.838464-21.991424-62.437376-35.600384-100.681728-35.600384-28.637184 0-55.498752 7.7824-78.893056 21.010432-12.361728-64.23552-54.165504-117.51424-110.374912-147.085312 19.212288-2.291712 49.627136-4.534272 92.321792-4.534272h193.804288c47.050752 0 79.869952 2.707456 98.459648 5.2224-4.982784 68.395008-41.803776 127.342592-94.636032 160.987136z"  horiz-adv-x="1024" />

    
    <glyph glyph-name="xuesheng1" unicode="&#58889;" d="M248.96 394.08c18.72 0 34.08 15.84 34.08 15.84 0 20.64-1.92 42.24-5.28 63.36-5.28 37.44-13.92 71.04-18.24 85.92 5.28 3.36 9.12 9.6 9.12 16.8 0 9.6-6.24 17.28-14.88 19.2v32.16l-10.08 5.76v-37.92c-8.64-2.4-14.88-10.08-14.88-19.2 0-7.2 3.36-13.44 9.12-16.8-6.24-23.04-23.52-91.68-23.52-148.8 0-0.48 15.84-16.32 34.56-16.32z m61.92 28.32c-0.48-7.68-0.96-15.84 0-23.52 2.4-22.56 9.6-43.68 23.52-61.92 7.68-10.08 13.92-11.52 24.96-7.2 3.84-0.96 12-19.2 13.44-23.04 15.84-33.6 40.8-74.88 87.84-92.64 32.16-12 68.16-15.84 101.76-6.24 35.52 10.08 63.84 35.52 85.44 64.8 20.16 26.88 26.4 43.68 29.76 50.88 1.44 2.88 1.44 5.76 4.8 6.24 2.4 0.48 6.24-1.92 8.64-1.44 6.24 0.48 10.56 4.8 14.4 9.6 13.92 18.24 21.12 39.36 23.52 61.92 0.96 7.68 0.48 15.84 0 23.52-0.96 12-8.16 24.48-23.52 24.48-0.96 0-1.44 0.48-2.88 0.96l-0.96 3.36 1.44 15.84c0.96 18.24 2.4 36 3.36 53.76 0.48 7.68 1.44 14.88 1.92 22.56l-45.6 12c-1.92 0.96-21.12 3.84-21.12 3.84-10.08 1.44-73.44 7.68-132.96 7.68-47.52 0.48-92.64-4.32-104.64-6.24-3.84-0.48-11.52-2.4-12-2.4 0 0-34.56-7.68-48-12.48l-12.48-4.8c0.48-17.28 1.92-34.56 2.88-51.84 0.48-13.92 1.92-27.84 3.36-41.76-1.44-0.48-1.92-0.96-2.88-0.96-15.84 0-23.04-12.96-24-24.96z m71.52 37.92c38.88 0 72.96 2.4 103.68 7.68 10.56 1.92 23.52 4.32 36.48 7.2 38.88 9.6 69.12 23.52 94.56 44.16 13.44-15.84 31.2-27.84 56.64-37.92 0.96-0.48 1.44-0.48 2.4-0.96l-0.48-10.08c-1.92-34.08-7.2-79.68-12.48-103.2-6.24-28.32-53.76-140.64-147.84-138.24-15.36 0.48-29.76 3.84-43.2 9.12-47.52 15.84-73.44 59.52-93.12 120.96-8.64 26.88-12.96 56.64-12.96 91.68 0 7.2-0.48 13.92-1.44 21.12 6.24-11.04 12-11.52 17.76-11.52z m320.64 161.28v0.48c-0.48 12.48 0.48 6.24-2.88 18.24-1.44 6.24-3.36 10.56-8.64 13.92-6.24 4.32-12.48 8.64-19.68 12-16.8 8.64-34.56 14.4-53.76 18.24-40.8 8.16-81.6 10.56-122.88 8.64-17.28-0.48-34.56-1.92-51.36-4.32-28.8-4.32-56.64-11.04-82.56-25.44-9.6-5.28-16.32-8.64-19.2-20.16-6.24-26.4-5.76-49.44-6.72-75.84v-2.4c15.84 5.76 33.6 10.56 50.4 13.44 11.04 2.88 24 4.8 37.44 5.28 9.6 2.88 42.24 4.32 75.36 4.32 30.72-0.48 61.44 0.48 92.16-1.44 22.56-0.96 45.12-5.28 67.2-8.64 5.28-0.96 10.56-1.44 14.88-3.36l30.24-8.16c0.96 12.96 0.96 42.24 0 55.2z m-380.64 25.92c4.8 19.2 17.76 26.4 27.84 32.16 25.44 14.4 53.76 23.04 90.24 28.8 15.84 2.4 71.04 5.28 79.68 5.28 36.48 0 69.6-3.36 101.28-9.6 21.6-4.8 40.8-11.04 58.56-19.68 6.72-3.36 21.6-12.96 21.6-12.96 11.04-7.2 14.88-16.8 17.28-25.92 2.88-11.04 2.88-21.6 3.36-31.2 0-2.4 0.48-9.12 0.48-9.12s76.8 44.16 112.32 64.8c-5.28 3.84-9.12 6.72-13.44 9.12-95.52 53.76-191.52 107.52-286.56 161.76-10.08 5.76-17.76 5.76-27.84 0-95.04-53.28-189.12-106.56-283.2-159.36-5.76-3.36-11.04-6.72-18.24-11.52 16.8-9.6 111.36-64.32 111.36-64.32 0.48 15.36 1.92 29.76 5.28 41.76zM822.56 106.55999999999995c-47.52 31.2-162.72 71.52-165.12 72-0.48-0.96-28.32-58.56-39.36-82.08-7.68-15.84-21.12-17.28-31.2-2.88-8.16 12-29.76 43.2-32.16 47.04-6.72 9.6-13.44 10.08-21.12 1.92-1.44-1.44-11.52-10.56-14.88-10.56-3.36 0-13.44 9.12-14.88 10.56-8.16 8.16-13.44 8.64-21.12-1.92s-22.56-31.68-30.72-42.24c-16.8-21.12-32.64-17.28-39.84 0-11.52 27.36-31.68 79.2-32.16 79.68-1.92-0.48-117.6-40.8-165.12-72-108-68.16-105.12-183.84-105.12-183.84H939.2c0-0.96 13.44 98.88-116.64 184.32z"  horiz-adv-x="1024" />

    
    <glyph glyph-name="084tuichu" unicode="&#58890;" d="M751.98752844 700.3052250000001c28.11277969-19.95639 53.07025875-42.57593344 74.87627344-67.83368906 21.85878-25.28461688 40.5641775-52.58194969 56.16991687-81.89007844 15.60669844-29.33595 27.46042219-60.35747719 35.56212844-93.11830594s12.17990156-65.95816031 12.17990156-99.67162219c0-58.0195425-11.09295937-112.44919969-33.22419375-163.29088875-22.18495875-50.84168906-52.09268156-95.15788312-89.88337875-132.89485687-37.73697469-37.73697469-81.99944438-67.67059969-132.89389781-89.82965531-50.78700656-22.15809656-105.27134625-33.22323469-163.29088875-33.22323469-57.367185 0-111.4706625 11.06513812-162.367035 33.22323469-50.78700656 22.15905656-95.26628906 52.09268156-133.3294425 89.82965531-38.06315344 37.76383594-67.96991625 82.05316781-89.82869625 132.89485687-21.85973906 50.84168906-32.73492563 105.27134625-32.73492563 163.29088875 0 33.06110437 3.8604225 65.52357469 11.63691 97.33272844 7.83021094 31.81011281 18.92317031 62.06991656 33.27791719 90.78133032 14.35474781 28.68263344 32.08160906 55.51755937 53.28803062 80.4759975 21.2064225 24.95939719 44.91482812 47.41585219 71.12425782 67.37224125 13.75707281 9.978195 28.60108875 13.73021062 44.47928343 11.22918656 15.87723563-2.50102406 28.81886062-10.27751156 38.82391782-23.38222688 10.00505625-13.10375531 13.70334938-27.75877969 11.25604875-43.99001437-2.50102406-16.23123563-10.2765525-29.33595-23.43595032-39.31318594-39.2594625-28.6835925-69.38399719-63.94640438-90.26424093-105.73471219-20.88024281-41.81516906-31.37456812-86.72903813-31.37456813-134.77038562 0-41.16281156 7.77552844-80.01359063 23.43595031-116.50053281 15.55105594-36.51380344 36.92152687-68.32391625 64.05481125-95.45719969 27.18796688-27.13328344 58.94339625-48.66684375 95.48406188-64.57190063 36.48598219-15.90505594 75.31085906-23.84367375 116.47367062-23.84367375 41.216535 0 80.04141187 7.93861781 116.52739407 23.84367375s68.296095 37.43765719 95.48406187 64.57190063c27.13328344 27.13328344 48.61216125 58.94339625 64.54407938 95.45719969 15.93191813 36.48598219 23.87053594 75.33676125 23.87053593 116.50053281 0 48.66684375-11.25508875 94.668615-33.71346187 138.03313312-22.45645406 43.36547812-53.94134813 79.08973687-94.50552563 107.14783407-13.70238937 9.35269875-21.96718594 22.15809656-24.79534875 38.36151093-2.82720281 16.23123563 0.48926812 31.21243781 9.84196688 44.94264844 9.35269875 13.10375531 22.13123531 21.04333219 38.33560875 23.84367375C723.33175719 712.9484924999999 738.28513906 709.65792375 751.98752844 700.3052250000001L751.98752844 700.3052250000001 751.98752844 700.3052250000001 751.98752844 700.3052250000001zM511.48339062 354.99118781000004c-16.20437344 0-30.07081219 5.7637725-41.65207968 17.31913781-11.52850406 11.52754406-17.29131656 25.420845-17.29131657 41.65207969L452.53999344 769.55395406c0 16.23123563 5.7637725 30.25980375 17.29131656 42.11352656 11.5812675 11.85276375 25.44770625 17.78058469 41.65207969 17.78058469 16.85577187 0 31.04838937-5.92782094 42.57593343-17.78058469 11.5822275-11.85372281 17.34599906-25.88229187 17.34599907-42.11352656l0-355.59154875c0-16.23123563-5.7637725-30.12453563-17.34599907-41.65207969C542.53177906 360.75400125 528.3391625 354.99118781000004 511.48339062 354.99118781000004L511.48339062 354.99118781000004 511.48339062 354.99118781000004 511.48339062 354.99118781000004zM511.48339062 354.99118781000004"  horiz-adv-x="1024" />

    
    <glyph glyph-name="shuaxin1" unicode="&#58978;" d="M962.074 405.446L647.271 540.3620000000001l125.831 89.881c-65.56 69.108-157.968 112.493-260.747 112.493-174.244 0-319.503-123.884-352.634-288.369l-83.949 34.777C123.56 686.175 300.628 832.68 512.355 832.68c132.973 0 252.063-58.09 334.393-149.833l115.326 82.375v-359.776z m-710.47-269.773c65.556-69.108 157.973-112.488 260.752-112.488 174.918 0 320.546 124.873 352.931 290.307l83.868-35.874c-47.481-197.458-224.77-344.377-436.799-344.377-132.973 0-252.068 58.086-334.398 149.828l-115.322-82.37V360.475L377.44 225.55899999999997l-125.836-89.886z"  horiz-adv-x="1024" />

    
    <glyph glyph-name="jiuyepeixun" unicode="&#59158;" d="M950.8 201.20000000000005H804.5V128h-73.1v73.2H292.6V128h-73.1v73.2H0v-146.4c0-60.5 49.2-109.7 109.7-109.7h804.5c60.5 0 109.7 49.2 109.7 109.7V201.20000000000005h-73.1zM372 676.6c15.6 43.8 57 73.1 103.5 73.1h73.1c47.6 0 88.3-30.6 103.4-73.1H372z m66.9-292.8h146.3v73.1H438.9v-73.1z m475.4 292.8H727.7c-17.5 85.1-92.3 146.2-179.1 146.3h-73.1c-86.8-0.1-161.7-61.2-179.2-146.3H109.7C49.2 676.6 0 627.3 0 566.9v-292.5h1024V566.9c0 60.4-49.3 109.7-109.7 109.7z"  horiz-adv-x="1024" />

    
    <glyph glyph-name="suo1" unicode="&#59135;" d="M204.689 437.172c-42.432 0-76.828-35.702-76.828-79.751v-345.594c0-44.046 34.396-79.757 76.828-79.757H819.31c42.427 0 76.828 35.711 76.828 79.757V357.41999999999996c0 44.049-34.4 79.751-76.828 79.751H307.127V592.879c0 104.875 91.723 163.3 204.873 163.3s204.877-58.425 204.877-163.3v-22.795h76.824V596.6800000000001c0 132.126-103.184 239.25-230.484 239.25H460.783c-127.29 0-230.489-107.124-230.489-239.25v-159.508h-25.605z"  horiz-adv-x="1024" />

    
    <glyph glyph-name="xiaoxi1" unicode="&#59098;" d="M882.2 752.7H141.8C63.6 752.7 0 690.2 0 613.3V154c0-76.9 63.6-139.4 141.8-139.4h740.4c78.2 0 141.8 62.5 141.8 139.4V613.3c0 76.9-63.6 139.4-141.8 139.4zM649.1 400.9l300.3 240.6c3.9-8.9 5.9-18.5 5.9-28.1V154c0-8.2-1.4-16.3-4.2-24l-302 270.9zM141.8 82.39999999999998c-5.7 0-11.3 0.6-16.9 1.9L429.7 357.6l54.1-43.4 2.3-2.3c7-6.7 16.2-10.3 26-10.3 8.5 0 16.8 2.9 23.4 8.2l59.7 47.7 304.6-273.2c-5.6-1.4-11.5-2-17.4-2H151.6v0.1h-9.8z m-10.7 601.7c3.5 0.5 7.1 0.8 10.7 0.8h740.4c3.8 0 7.6-0.3 11.4-0.9L512.5 378.79999999999995 131.1 684.1z m244.7-283.2L73.2 129.39999999999998c-3 7.8-4.4 16.1-4.4 24.6V613.3c0 9.9 2.1 19.6 6.1 28.6l300.9-241z"  horiz-adv-x="1024" />

    
    <glyph glyph-name="chuangkou-fangda" unicode="&#58891;" d="M964.03911111 787.51288889H61.44c-31.28888889 0-56.88888889-25.6-56.88888889-56.88888889v-733.41155555c0-31.28888889 25.6-56.88888889 56.88888889-56.88888889h902.59911111c31.28888889 0 56.88888889 25.6 56.88888889 56.88888889V730.624c0 31.28888889-25.6 56.88888889-56.88888889 56.88888889z m-24.23466666-738.41777777c0-12.51555555-10.24-22.75555555-22.75555556-22.75555556H112.29866667c-12.51555555 0-22.75555555 10.24-22.75555556 22.75555556v463.07555555c0 12.51555555 10.24 22.75555555 22.75555556 22.75555555H917.04888889c12.51555555 0 22.75555555-10.24 22.75555556-22.75555555v-463.07555555z"  horiz-adv-x="1024" />

    
    <glyph glyph-name="tongji1" unicode="&#59060;" d="M105.30909125 560.29090875h88.14545437c24.43636406 0 43.63636406-19.2 43.63636313-43.63636313v-590.83636406H61.67272719V516.65454563c0 24.43636406 19.2 43.63636406 43.63636406 43.63636312zM829.67272719 560.29090875h88.14545437c24.43636406 0 43.63636406-19.2 43.63636407-43.63636313v-590.83636406H786.03636406V516.65454563c0 24.43636406 19.2 43.63636406 43.63636313 43.63636312zM587.92727281 397.09090875h88.14545438c24.43636406 0 43.63636406-19.2 43.63636406-43.63636313v-426.76363687H544.29090875V353.45454563c0 23.56363594 19.2 43.63636406 43.63636406 43.63636312zM346.18181844 848.29090875h88.14545437c24.43636406 0 43.63636406-19.2 43.63636313-43.63636313v-878.83636406H302.54545437V804.65454562c0 24.43636406 20.07272719 43.63636406 43.63636407 43.63636313z"  horiz-adv-x="1024" />

    
    <glyph glyph-name="renshiguanli1" unicode="&#58932;" d="M1085.522708 208.34461499999998a58.840615 58.840615 0 0 1-41.747693 16.147693h-59.076923V335.71446199a69.316923 69.316923 0 0 1-23.47323001 52.14523001 78.060308 78.060308 0 0 1-55.37476999 22.055385h-315.076923V521.0584619900001h59.076923a58.76184599 58.76184599 0 0 1 41.82646199 16.22646101 52.06646201 52.06646201 0 0 1 17.25046101 39.38461501V762.171077a52.06646201 52.06646201 0 0 1-17.25046101 39.384615 58.840615 58.840615 0 0 1-41.82646199 16.22646201h-196.923077a58.840615 58.840615 0 0 1-41.82646101-16.22646201 52.06646201 52.06646201 0 0 1-17.25046199-39.384615v-185.422769c0-15.438769 5.75015401-28.593231 17.25046199-39.384616a58.76184599 58.76184599 0 0 1 41.82646101-16.226461h59.07692299V409.99384601h-315.07692299a78.060308 78.060308 0 0 1-55.37476901-22.05538402 69.316923 69.316923 0 0 1-23.39446099-52.14523099v-111.222154H59.08086201a58.840615 58.840615 0 0 1-41.82646201-16.226462 52.06646201 52.06646201 0 0 1-17.25046199-39.384615v-185.422769c0-15.438769 5.75015401-28.51446201 17.25046199-39.384616a58.840615 58.840615 0 0 1 41.82646201-16.22646101h196.923076a58.840615 58.840615 0 0 1 41.82646199 16.22646101 52.06646201 52.06646201 0 0 1 17.25046201 39.384616V168.96000000000004a52.06646201 52.06646201 0 0 1-17.25046201 39.384615 58.840615 58.840615 0 0 1-41.82646199 16.226462H196.927015V335.71446199h315.07692301v-111.22215399h-59.07692301a58.840615 58.840615 0 0 1-41.82646101-16.22646201 52.06646201 52.06646201 0 0 1-17.25046199-39.38461499v-185.42276901c0-15.438769 5.75015401-28.51446201 17.25046199-39.384616a58.76184599 58.76184599 0 0 1 41.82646101-16.22646099h196.923077a58.840615 58.840615 0 0 1 41.82646199 16.22646099 52.145231 52.145231 0 0 1 17.25046101 39.384616V168.96000000000004a52.06646201 52.06646201 0 0 1-17.25046101 39.384615 58.840615 58.840615 0 0 1-41.82646199 16.226462H590.773169V335.71446199h315.076923v-111.22215399h-59.076923a58.840615 58.840615 0 0 1-41.826461-16.22646201 52.06646201 52.06646201 0 0 1-17.25046199-39.38461499v-185.42276901c0-15.438769 5.75015401-28.51446201 17.25046199-39.384616a58.840615 58.840615 0 0 1 41.826461-16.22646099h196.92307701a58.840615 58.840615 0 0 1 41.82646199 16.22646099 52.06646201 52.06646201 0 0 1 17.250461 39.384616V168.96000000000004a52.145231 52.145231 0 0 1-17.250461 39.384615z"  horiz-adv-x="1102" />

    
    <glyph glyph-name="nv1" unicode="&#58915;" d="M654.125 427.625c0 6.375 4.875 11.25 11.25 11.25s11.25-4.875 11.25-11.25v-40.125c0-6.375-4.875-11.25-11.25-11.25s-11.25 4.875-11.25 11.25v40.125z m-306.75 0c0 6.375 4.875 11.25 11.25 11.25s11.25-4.875 11.25-11.25v-40.125c0-6.375-4.875-11.25-11.25-11.25s-11.25 4.875-11.25 11.25v40.125zM287 496.625c-7.5 19.125-10.875 40.875-8.25 59.625 1.5 11.25 6 19.125 12.375 24.375 17.625 160.875 95.625 241.875 221.25 241.875 123 0 198.375-78.75 212.625-236.25 10.875-4.5 18.75-14.25 21-30 3.375-25.875-4.125-58.5-19.5-80.625-2.25-132 18-212.25 27.375-272.625 11.625-4.125 22.875-8.625 33.75-12.75 30.375-12 51.75-34.5 66-63.375 19.125-39 30.375-80.625 37.5-126 1.5-9-5.625-17.25-14.625-17.25-153.75-0.375-223.5-59.25-363.75-59.25-68.625 0-120 13.875-173.25 28.5-54.375 15-111 30.375-189.75 30.75-9.375 0-16.875 7.875-15.375 17.25 8.25 51.75 27.375 127.125 64.125 163.875 10.875 10.875 24 19.5 39.375 25.875 4.125 1.5 8.25 3.375 12.375 4.875 2.25 127.125 36 184.875 36.75 301.125z m223.125 192c-37.125-30-65.625-128.625-129.375-150.375 35.625 18.375 46.875 81.375 76.5 124.125C404.75 616.625 381.875 531.5 328.25 555.5c-0.375 0-0.75 0.375-1.5 0.375-9.375 4.125-17.25 3.75-18.75-7.5-2.625-21.75 5.625-50.25 21.75-64.5 10.5-9.375 18.375-9.375 30.75-12.375 8.25-1.875 12-5.625 15.75-12.75 27.75-54 65.25-144 135-144 70.125 0 108.375 89.625 136.125 144 3.75 7.125 7.5 10.875 15.75 12.75 12.375 3 20.25 3 30.75 12.375 16.125 14.25 24.375 42.375 21.75 64.5-1.5 11.25-9.375 12-18.75 7.5l-0.375-0.375c-0.75-0.375-1.125-0.75-1.875-1.125-5.625-2.625-18-14.625-23.625-12.375-31.875 12-51 145.125-148.125 147.375-4.125 0.375-8.625-0.375-12.75-0.75z m247.125-519.375c2.625-37.125-3.375-67.875-28.875-102-3.75 2.25-7.125 4.125-10.5 6 5.625 36.75 5.625 76.5-4.125 112.125l-5.25 1.875c4.875-40.5 3-75-4.875-106.875-42.75 20.625-70.125 19.875-99 26.25 7.125 25.875 16.5 51.375 16.5 91.875-7.5-35.625-22.5-59.25-34.125-87-1.875 0.75-3.75 1.125-5.625 1.875 15.75 28.5 22.5 69.375 24.75 109.125l-2.625 0.75c-12 4.125-19.5 14.625-19.875 27l-2.625 57.75c-19.5-14.625-42-23.625-69-23.625-26.625 0-49.125 9-68.25 22.875l-2.625-57.375c-0.75-12.375-8.25-22.5-19.875-27-52.5-18.75-118.875-40.5-172.875-61.875-1.5-0.75-3.375-1.5-4.875-2.25 1.125-47.625 15.75-78 41.625-96 54-37.5 135.375-17.625 227.25-97.125 92.25 79.5 173.25 59.25 227.25 97.125 25.5 18 40.5 48.375 41.625 96-1.5 0.75-3.375 1.5-4.875 2.25-6.375 3.375-12.75 6-19.125 8.25zM671.375 577.625c-36 76.5-56.625 125.25-137.25 139.5 81.75 12.75 118.125-49.875 137.25-139.5z"  horiz-adv-x="1024" />

    
    <glyph glyph-name="banji" unicode="&#58910;" d="M152 519h720V744H152v-225zM62 429V834h900v-405H62z m765-315c74.43 0 135-60.57 135-135v-45h-90v45c0 24.795-20.16 45-45 45h-90c-24.84 0-45-20.205-45-45v-45h-90v45c0 24.795-20.16 45-45 45H467c-24.84 0-45-20.205-45-45v-45H332v45c0 24.795-20.16 45-45 45H197c-24.84 0-45-20.205-45-45v-45H62v45c0 74.43 60.57 135 135 135h90a134.1 134.1 0 0 0 90-35.1A134.1 134.1 0 0 0 467 114h90a134.1 134.1 0 0 0 90-35.1 134.1 134.1 0 0 0 90 35.1h90zM332 249A90 90 0 1 0 152 249 90 90 0 0 0 332 249z m270.09 0a90 90 0 1 0-180 0 90 90 0 0 0 180 0z m270.09 0a90 90 0 1 0-180 0 90 90 0 0 0 180 0z"  horiz-adv-x="1024" />

    
    <glyph glyph-name="jia" unicode="&#58892;" d="M581.9000003 384.225l365.9249997 366.30000001a47.99999971 47.99999971 0 0 1 1e-8 67.49999999l-2.02500001 2.02500003a47.85000029 47.85000029 0 0 1-67.34999971-2e-8l-366.00000028-366.82499971L146.60000001 819.97500029a47.85000029 47.85000029 0 0 1-67.34999972 0L77.14999969 818.09999971a47.09999971 47.09999971 0 0 1 0-67.50000001l366.00000031-366.3-366.00000031-366.3749997a47.99999971 47.99999971 0 0 1 0-67.5l2.02500002-1.95000029a47.85000029 47.85000029 0 0 1 67.35000059-1e-8l365.99999941 366.37500057 365.92500058-366.37500056a47.85000029 47.85000029 0 0 1 67.3499997-1e-8l2.02500001 2.025a47.99999971 47.99999971 0 0 1 0 67.50000002l-366.00000029 366.29999998z"  horiz-adv-x="1024" />

    
    <glyph glyph-name="renshiguanli2" unicode="&#58893;" d="M672.70087111 568.80696889c0-116.50844445-112.49095111-269.17546667-224.98190222-269.17546667s-224.98076445 156.68337778-224.98076444 269.17546667c0 176.77084445 48.20992 273.19182222 224.98076444 273.19182222 180.78947555-4.01749333 224.98190222-96.42097778 224.98190222-273.19182222z m-60.2624-582.54222222H41.94872889c-16.06997333 0-28.12245333 12.05248-28.12245334 28.12245333v104.45596445c16.06997333 40.17493333 36.15744 72.31488 60.2624 92.40348444 12.05248 12.05248 28.12245333 24.10496 48.21105778 40.17493333l60.2624 48.20992c12.05248 8.03498667 20.08746667 16.06997333 28.12245334 20.08746667 8.03498667 8.03612445 20.08860445 8.03612445 32.14108444 0l208.91079111-136.59591111 152.66702223 96.42097777c4.01635555-8.03498667 4.01635555-24.10496 4.01635555-28.12245333 0-24.10496-12.05134222-24.10496-32.13880889-36.15857777-24.10609778-12.05248-40.17493333-28.12245333-40.17493333-52.22741334v-56.24490666c0-20.08860445 8.03384889-40.17493333 28.12131555-48.21105778 36.15857778-20.08746667 52.22855111-28.12245333 52.22855112-56.24490667-4.01749333-4.01749333-4.01749333-12.05248-4.01749334-16.06997333zM965.98129778 187.14168888999995c16.06997333 0 32.13994667-16.07111111 32.13994667-32.14108444v-40.17493334c0-20.08746667-12.05248-32.14108445-28.12245334-32.14108444-28.12245333 0-48.20992-24.10496-48.20992-52.22741334 0-8.03498667 0-12.05248 4.01635556-20.08746666 8.03612445-16.06997333 0-36.15857778-12.05248-44.19356445l-36.15744-20.08746667c-4.01635555-4.01635555-12.05248-4.01635555-16.06997334-4.01635555-12.05248 0-20.08746667 4.01635555-28.12245333 16.06883555-8.03498667 12.05248-28.12245333 24.10609778-44.19356445 24.10609778s-36.15744-8.03612445-44.19242666-24.10609778c-8.03498667-8.03498667-16.06997333-16.06997333-28.12245334-16.06997333-8.03498667 0-12.05248 0-16.06997333 4.01749333l-36.15857777 20.08746667c-16.06997333 8.03498667-20.08746667 28.12359111-12.05248 44.19356445 4.01749333 8.03498667 8.03498667 16.06997333 8.03498666 24.10496 0 28.12245333-20.08746667 52.22741333-48.20992 52.22741333-16.06997333 0-28.12245333 16.07111111-28.12245333 32.14108445v40.17493333c0 20.08746667 12.05248 32.13994667 28.12245333 32.13994667 28.12245333 0 52.22741333 24.10609778 52.22741334 52.2285511 0 8.03498667-4.01635555 16.06997333-8.03498667 24.10496-8.03498667 16.06997333 0 36.15857778 12.05248 44.19242667l16.06997333 8.03498667 16.07111111 8.03612444c4.01635555 4.01635555 12.05248 4.01635555 16.06997333 4.01635556 8.03498667 0 20.08746667-4.01635555 28.12245334-16.06997334 8.03498667-12.05248 28.12245333-24.10496 44.19242666-24.10496s36.15857778 8.03498667 44.19356445 24.10496c4.01635555 8.03498667 16.06997333 16.07111111 28.12245333 16.07111112 4.01749333 0 12.05248 0 16.06997334-4.01749334l16.06997333-8.03612444 16.06997333-8.03498667c16.07111111-8.03498667 20.08860445-28.12245333 12.05361778-44.19242667-4.01863111-8.03498667-8.03612445-16.06997333-8.03612444-24.10496 4.01749333-28.12245333 24.10609778-52.22855111 52.22855111-56.24604444zM797.24430222 50.54350222000005c48.21105778 0 84.36849778 36.15857778 84.36849778 84.36849778s-36.15857778 84.36849778-84.36849778 84.36849778-84.36736-36.15857778-84.36736-84.36849778 40.17493333-84.36849778 84.36736-84.36849778z"  horiz-adv-x="1024" />

    
    <glyph glyph-name="shezhi" unicode="&#58905;" d="M905.91113164 469.46732403l-72.18706289 16.06821679a329.75817715 329.75817715 0 0 1-21.40430362 51.68209922l39.03137755 64.99233897c14.56931602 23.38285253 21.9439081 57.55779053 0 79.56165497l-39.75084932 39.75084932a54.85976982 54.85976982 0 0 1-39.69089385 15.22883232 74.94503994 74.94503994 0 0 1-41.66944189-12.77063437l-63.25361455-40.35041016a339.59096631 339.59096631 0 0 1-51.38231924 21.58417178L599.41589521 778.24089023C594.49950019 805.04123613 571.05669219 834 539.9994667 834h-56.17880157c-31.05722461 0-50.06328662-29.37845566-56.17880243-56.23875791L409.65505332 705.69409102c-19.00606201-6.05555947-37.35260771-13.78988701-54.73985801-23.02311621l-64.87242627 41.30970644a75.06495263 75.06495263 0 0 1-41.66944277 12.77063438 55.03963799 55.03963799 0 0 1-39.69089297-15.22883233l-39.7508502-39.75084932c-21.9439081-22.00386357-14.56931602-56.23875791 0-79.56165497l41.06988282-68.34987598c-7.67437207-15.58856865-14.50935967-31.59682911-19.78549102-48.32456221L118.08886836 469.46732403c-26.80034678-4.79648232-55.75910977-28.17933487-55.75910977-59.29651583v-56.17880244c0-31.05722461 29.37845566-50.06328662 56.17880157-56.2387579l73.02644736-18.2266339c5.09626231-15.46865596 11.39164628-30.33775195 18.52641386-44.78715615l-41.12983828-68.46978867c-14.56931602-23.26294072-21.88395175-57.55779053 0-79.50169863l39.81080567-39.75084932c10.73212998-10.79208545 25.12157783-15.28878779 39.6309375-15.28878867 15.04896416 0 30.33775195 4.91639502 41.66944277 12.83059073l64.99233896 41.36966279c17.56711758-9.2332292 35.97361963-17.08746943 55.09959346-23.14302891l17.98680938-71.94723838c6.17547129-26.74039042 25.1815333-56.17880244 56.23875791-56.17880244h56.17880244c31.05722461 0 54.44007715 28.95876387 59.29651582 55.75910976l16.18812862 73.20631554c17.62707305 5.69582315 34.59463067 12.95050254 50.84271562 21.28439179l63.37352636-40.35041015c11.39164628-7.91419658 26.62047862-12.83059073 41.6694419-12.83059073a54.91972529 54.91972529 0 0 1 39.69089385 15.28878867l39.75084932 39.75084932c21.9439081 21.9439081 14.56931602 56.23875791 0 79.50169863l-39.09133301 65.05229443a342.34894424 342.34894424 0 0 1 20.14522646 48.20465039l73.08640371 18.2266339c26.74039042 6.17547129 56.17880244 25.1815333 56.17880157 56.2387579V410.11085185c0 31.05722461-28.95876387 54.50003349-55.75910977 59.35647217zM512.77942812 248.34947666000005a135.98028105 135.98028105 0 0 0-135.98028104 135.62054561 135.98028105 135.98028105 0 0 0 271.9605621 0 135.98028105 135.98028105 0 0 0-135.98028106-135.62054561z"  horiz-adv-x="1024" />

    
    <glyph glyph-name="jiaoxuemoshi" unicode="&#59240;" d="M915.2 232.79999999999995V686.88c0 11.04 9.12 20.16 20.16 20.16H992v41.28h-439.2c-11.04 0-20.16 9.12-20.16 20.16V825.12h-41.28v-56.16c0-11.04-9.12-20.16-20.16-20.16H32v-41.28h56.16c11.04 0 20.16-9.12 20.16-20.16v-454.08c0-11.04-9.12-20.16-20.16-20.16H32v-41.28h227.04c6.24 0 12.48-2.88 15.84-8.16s4.32-11.52 2.4-17.76l-50.88-147.84 42.72-41.28 69.12 200.64c2.88 8.64 11.04 14.4 20.16 14.4h112.8c11.04 0 20.16-9.12 20.16-20.16v-208.32h41.28v208.32c0 11.04 9.12 20.16 20.16 20.16H665.6c9.12 0 17.28-5.76 20.16-14.4l69.12-200.64 42.72 41.28-50.88 147.84c-1.92 5.76-0.96 12.48 2.4 17.76 3.84 5.28 9.6 8.16 15.84 8.16H992v41.28h-56.16c-11.52-0.48-20.64 8.64-20.64 19.68z m-46.56-1.44c-0.96-12-11.04-18.72-20.16-18.72H170.72c-12.48 0-19.2 8.16-20.16 16.32v441.6c0 3.84 0.96 8.64 2.4 12.48l1.44 2.88 17.76 17.76 2.88 1.44c3.36 1.44 8.16 2.4 12 2.4h645.12c3.84 0 8.64-0.96 12-2.4l2.88-1.44 17.76-17.76 1.44-2.88c1.44-3.36 2.4-8.16 2.4-12v-439.68zM346.88 594.72H271.04v-30.24h40.8v-176.16h-26.88v-30.24h88.32v30.24h-26.4zM517.76 532.3199999999999h-32.64v-71.04H414.56v-32.16h70.56v-71.04h32.64V429.12h70.56v32.16h-70.56zM749.6 388.32h-82.56c52.32 51.36 82.56 82.56 90.24 94.08 8.16 11.52 12 24.96 12 40.32 0 20.16-7.2 36.96-21.6 51.36-14.4 13.92-32.16 21.12-53.28 21.12-19.68 0-36.96-7.68-52.32-23.04-15.36-15.36-23.04-34.56-23.04-58.08h35.04c0 14.88 3.84 26.88 11.52 36.48 7.68 9.6 17.28 13.92 29.28 13.92 12 0 21.6-3.84 28.8-12s11.04-17.76 11.04-29.76c0-13.92-4.8-25.44-13.92-34.56l-101.28-102.24v-27.84h139.2c13.92 1.44 21.12 9.12 21.12 22.56v29.28h-30.24v-21.6z"  horiz-adv-x="1024" />

    
    <glyph glyph-name="jiuye" unicode="&#58896;" d="M893.59913718-77.26664057999994L141.66698667-77.26664057999994c-68.0882631 0-123.4819603 55.39491082-123.4819603 123.48317391L18.18502637 590.50029511c0 68.0882631 55.39369718 123.48317392 123.4819603 123.48317394l751.93093688-2e-8c68.0882631 0 123.4819603-55.39491082 123.4819603-123.48317392l0-544.28376178c0.00121363-68.08947675-55.39369718-123.48317392-123.48074667-123.48317391zM141.66698667 636.30995911c-25.25927348 0-45.809664-20.55039052-45.809664-45.81087763l0-544.28376178c0-25.25927348 20.55039054-45.81087763 45.80966399-45.81087762l751.93093689 0c25.25927348 0 45.809664 20.55160415 45.809664 45.81087762L939.40758756 590.50029511c0 25.25927348-20.55039054 45.81087763-45.80966401 45.81087764L141.66698667 636.31117275zM55.20073008 457.31293867l917.45788207 0 0-77.6722963L55.20073008 379.64064237zM516.66033778 219.45002667000006c-82.14088058 0-148.96696889 66.8260883-148.96696889 148.96696888 0 28.90258962 8.29758578 56.94714311 23.99588503 81.1008l65.12579319-42.32776058c-7.49052208-11.52462697-11.44938192-24.93159348-11.44938193-38.77303942 0-39.31310459 31.98278163-71.2946726 71.2946726-71.29467258 39.31310459 0 71.29588622 31.98278163 71.29588622 71.29467258 0 12.85597867-3.44670815 25.43889067-9.96754015 36.39068445l66.73749333 39.73666133c13.67517867-22.96551348 20.90234311-49.29035378 20.90234312-76.12855941 0-82.13845333-66.82730192-148.96575525-148.96818252-148.96575525zM653.99466667 636.43496297L371.21896297 636.43496297c-29.44508209 0-53.3997037 23.95462163-53.39970372 53.3997037l0 104.37214815c0 29.44508209 23.95462163 53.3997037 53.39970372 53.3997037l282.7757037 0c29.44508209 0 53.3997037-23.95462163 53.3997037-53.3997037l0-104.37214815c0-29.44508209-23.95462163-53.3997037-53.3997037-53.3997037z m-258.50311112 77.67229628l234.23051853 0 0 55.82696297L395.49155555 769.93422222l0-55.82696297z"  horiz-adv-x="1024" />

    
    <glyph glyph-name="zhuti1" unicode="&#59834;" d="M1004.08888889 546.01955555L694.04444445 748.43022222c-39.02577778-59.05066667-105.92711111-98.19022222-182.04444445-98.19022222s-143.01866667 39.02577778-182.04444445 98.19022222L19.91111111 546.01955555c-17.97688889-11.71911111-22.98311111-35.72622222-11.264-53.7031111l69.06311111-105.92711112c11.71911111-17.97688889 35.72622222-22.98311111 53.70311111-11.264l112.52622222 73.50044445v-390.25777778c0-21.39022222 17.408-38.79822222 38.79822223-38.79822222h458.752c21.39022222 0 38.79822222 17.408 38.79822222 38.79822222v390.25777778l112.52622222-73.50044445c17.97688889-11.71911111 41.984-6.59911111 53.70311111 11.264l69.06311112 105.92711112c11.49155555 17.97688889 6.48533333 41.984-11.49155556 53.7031111z"  horiz-adv-x="1024" />

    
    <glyph glyph-name="chuangkoufangda" unicode="&#58973;" d="M932 765.33333334v-780.00000001H92V765.33333334h840m60 59.99999999H32v-900h960V825.33333333z"  horiz-adv-x="1024" />

    
    <glyph glyph-name="chuangkousuoxiao" unicode="&#58974;" d="M992 864H272v-240H32v-720h720V144h240zM692-36H92V564h180v-420h420z m0 240H332V564h360z m240 0H752V624H332V804h600z"  horiz-adv-x="1024" />

    
    <glyph glyph-name="zhuomian" unicode="&#58986;" d="M930.09055289 74.02928354999995h-299.07717689v-78.06065777l59.41930667-62.390272V-82.03377778000004H333.50906311v15.61213156l59.53581511 62.33201777v78.06065778H93.85119289A47.36068267 47.36068267 0 0 0 45.96622222 120.92393245000005V744.94316089C45.96622222 770.80803555 67.403776 791.7795555499999 93.85119289 791.7795555499999h836.23936c26.50567111 0 47.94322489-20.97152 47.94322489-46.83639466v-624.13573689a47.36068267 47.36068267 0 0 0-47.94322489-46.77814045z m-15.96165689 655.36H109.81284978v-477.85938488h804.31604622V729.33102933z"  horiz-adv-x="1024" />

    


  </font>
</defs>
</svg>
